<svg xmlns="http://www.w3.org/2000/svg" xmlns:xlink="http://www.w3.org/1999/xlink" width="476" height="177.5"><rect fill="#ffffff" stroke="#e5e7eb" rx="4" ry="4" x="8" y="8" width="460" height="161.5"></rect><g ><rect fill="#ffffff" stroke="#e5e7eb" rx="4" ry="4" x="91" y="23" width="58" height="28"></rect><text fill="#000" font-size="16" x="99" y="43" baseline-shift="baseline">🍤 虾</text></g><g ><rect fill="#ffffff" stroke="#e5e7eb" rx="4" ry="4" x="164" y="23" width="74" height="28"></rect><text fill="#000" font-size="16" x="172" y="43" baseline-shift="baseline">🐔 鸡肉</text></g><g ><rect fill="#ffffff" stroke="#e5e7eb" rx="4" ry="4" x="253" y="23" width="82" height="28"></rect><text fill="#000" font-size="16" x="261" y="43" baseline-shift="baseline">🌶️ 辣椒</text></g><g ><rect fill="#ffffff" stroke="#e5e7eb" rx="4" ry="4" x="350" y="23" width="74" height="28"></rect><text fill="#000" font-size="16" x="358" y="43" baseline-shift="baseline">🌿 香草</text></g><g ><rect fill="#ffffff" stroke="#e5e7eb" rx="4" ry="4" x="91" y="66" width="74" height="28"></rect><text fill="#000" font-size="16" x="99" y="86" baseline-shift="baseline">🐚 蛤蜊</text></g><g ><rect fill="#ffffff" stroke="#e5e7eb" rx="4" ry="4" x="180" y="66" width="130" height="28"></rect><text fill="#000" font-size="16" x="188" y="86" baseline-shift="baseline">👩‍🍳 别的少吃</text></g><text fill="#000" font-size="20" x="30" y="66" baseline-shift="baseline">宜</text><line x1="8" y1="111" x2="468" y2="111" stroke="#e5e7eb" stroke-width="1"></line><g ><rect fill="#ffffff" stroke="#e5e7eb" rx="4" ry="4" x="91" y="126" width="90" height="28"></rect><text fill="#000" font-size="16" x="99" y="146" baseline-shift="baseline">🌀 西北风</text></g><text fill="#000" font-size="20" x="30" y="147.5" baseline-shift="baseline">忌</text><line x1="76" y1="8" x2="76" y2="169.5" stroke="#e5e7eb" stroke-width="1"></line></svg>