<svg xmlns="http://www.w3.org/2000/svg" xmlns:xlink="http://www.w3.org/1999/xlink" width="476" height="607.5"><style >text {
      font-family: Consolas, "Lucida Console", Monaco, "DejaVu Sans Mono", "Bitstream Vera Sans Mono", monospace;
      font-variant-numeric: tabular-nums;
    }</style><rect fill="#ffffff" stroke="#e5e7eb" rx="4" ry="4" x="8" y="8" width="460" height="591.5"></rect><g ><rect fill="#ffffff" stroke="#e5e7eb" rx="4" ry="4" x="91" y="23" width="64" height="28"></rect><text fill="#000" font-size="16" x="99" y="43" baseline-shift="baseline">🥣 粥</text></g><g ><rect fill="#ffffff" stroke="#e5e7eb" rx="4" ry="4" x="170" y="23" width="80" height="28"></rect><text fill="#000" font-size="16" x="178" y="43" baseline-shift="baseline">🥛 豆浆</text></g><g ><rect fill="#ffffff" stroke="#e5e7eb" rx="4" ry="4" x="265" y="23" width="80" height="28"></rect><text fill="#000" font-size="16" x="273" y="43" baseline-shift="baseline">🍯 蜂蜜</text></g><g ><rect fill="#ffffff" stroke="#e5e7eb" rx="4" ry="4" x="360" y="23" width="80" height="28"></rect><text fill="#000" font-size="16" x="368" y="43" baseline-shift="baseline">🍋 柠檬</text></g><g ><rect fill="#ffffff" stroke="#e5e7eb" rx="4" ry="4" x="91" y="66" width="80" height="28"></rect><text fill="#000" font-size="16" x="99" y="86" baseline-shift="baseline">🥯 年糕</text></g><g ><rect fill="#ffffff" stroke="#e5e7eb" rx="4" ry="4" x="186" y="66" width="80" height="28"></rect><text fill="#000" font-size="16" x="194" y="86" baseline-shift="baseline">🍊 橘子</text></g><g ><rect fill="#ffffff" stroke="#e5e7eb" rx="4" ry="4" x="281" y="66" width="80" height="28"></rect><text fill="#000" font-size="16" x="289" y="86" baseline-shift="baseline">🍵 茶叶</text></g><g ><rect fill="#ffffff" stroke="#e5e7eb" rx="4" ry="4" x="91" y="109" width="80" height="28"></rect><text fill="#000" font-size="16" x="99" y="129" baseline-shift="baseline">🍚 米饭</text></g><g ><rect fill="#ffffff" stroke="#e5e7eb" rx="4" ry="4" x="186" y="109" width="96" height="28"></rect><text fill="#000" font-size="16" x="194" y="129" baseline-shift="baseline">🍡 糖葫芦</text></g><g ><rect fill="#ffffff" stroke="#e5e7eb" rx="4" ry="4" x="297" y="109" width="96" height="28"></rect><text fill="#000" font-size="16" x="305" y="129" baseline-shift="baseline">🍡 糯米团</text></g><g ><rect fill="#ffffff" stroke="#e5e7eb" rx="4" ry="4" x="91" y="152" width="96" height="28"></rect><text fill="#000" font-size="16" x="99" y="172" baseline-shift="baseline">🥑 牛油果</text></g><g ><rect fill="#ffffff" stroke="#e5e7eb" rx="4" ry="4" x="202" y="152" width="96" height="28"></rect><text fill="#000" font-size="16" x="210" y="172" baseline-shift="baseline">🌼 薰衣草</text></g><g ><rect fill="#ffffff" stroke="#e5e7eb" rx="4" ry="4" x="313" y="152" width="112" height="28"></rect><text fill="#000" font-size="16" x="321" y="172" baseline-shift="baseline">👩‍🍳 别的少吃</text></g><g ><rect fill="#ffffff" stroke="#e5e7eb" rx="4" ry="4" x="91" y="195" width="112" height="28"></rect><text fill="#000" font-size="16" x="99" y="215" baseline-shift="baseline">🌹 玫瑰花瓣</text></g><text fill="#000" font-size="20" x="32" y="130.5" baseline-shift="baseline">宜</text><line x1="8" y1="240" x2="468" y2="240" stroke="#e5e7eb" stroke-width="1"></line><g ><rect fill="#ffffff" stroke="#e5e7eb" rx="4" ry="4" x="91" y="255" width="80" height="28"></rect><text fill="#000" font-size="16" x="99" y="275" baseline-shift="baseline">🍠 芋头</text></g><g ><rect fill="#ffffff" stroke="#e5e7eb" rx="4" ry="4" x="186" y="255" width="80" height="28"></rect><text fill="#000" font-size="16" x="194" y="275" baseline-shift="baseline">🥯 白果</text></g><g ><rect fill="#ffffff" stroke="#e5e7eb" rx="4" ry="4" x="281" y="255" width="80" height="28"></rect><text fill="#000" font-size="16" x="289" y="275" baseline-shift="baseline">🍂 香料</text></g><g ><rect fill="#ffffff" stroke="#e5e7eb" rx="4" ry="4" x="91" y="298" width="80" height="28"></rect><text fill="#000" font-size="16" x="99" y="318" baseline-shift="baseline">🌼 菊花</text></g><g ><rect fill="#ffffff" stroke="#e5e7eb" rx="4" ry="4" x="186" y="298" width="80" height="28"></rect><text fill="#000" font-size="16" x="194" y="318" baseline-shift="baseline">🦆 烤鸭</text></g><g ><rect fill="#ffffff" stroke="#e5e7eb" rx="4" ry="4" x="281" y="298" width="80" height="28"></rect><text fill="#000" font-size="16" x="289" y="318" baseline-shift="baseline">🍷 红酒</text></g><g ><rect fill="#ffffff" stroke="#e5e7eb" rx="4" ry="4" x="91" y="341" width="80" height="28"></rect><text fill="#000" font-size="16" x="99" y="361" baseline-shift="baseline">🥥 椰子</text></g><g ><rect fill="#ffffff" stroke="#e5e7eb" rx="4" ry="4" x="186" y="341" width="80" height="28"></rect><text fill="#000" font-size="16" x="194" y="361" baseline-shift="baseline">🍄 香菇</text></g><g ><rect fill="#ffffff" stroke="#e5e7eb" rx="4" ry="4" x="281" y="341" width="80" height="28"></rect><text fill="#000" font-size="16" x="289" y="361" baseline-shift="baseline">🌲 松子</text></g><g ><rect fill="#ffffff" stroke="#e5e7eb" rx="4" ry="4" x="91" y="384" width="80" height="28"></rect><text fill="#000" font-size="16" x="99" y="404" baseline-shift="baseline">🧀 芝士</text></g><g ><rect fill="#ffffff" stroke="#e5e7eb" rx="4" ry="4" x="186" y="384" width="80" height="28"></rect><text fill="#000" font-size="16" x="194" y="404" baseline-shift="baseline">🥟 饺子</text></g><g ><rect fill="#ffffff" stroke="#e5e7eb" rx="4" ry="4" x="281" y="384" width="80" height="28"></rect><text fill="#000" font-size="16" x="289" y="404" baseline-shift="baseline">🦞 龙虾</text></g><g ><rect fill="#ffffff" stroke="#e5e7eb" rx="4" ry="4" x="91" y="427" width="80" height="28"></rect><text fill="#000" font-size="16" x="99" y="447" baseline-shift="baseline">🥩 牛肉</text></g><g ><rect fill="#ffffff" stroke="#e5e7eb" rx="4" ry="4" x="186" y="427" width="80" height="28"></rect><text fill="#000" font-size="16" x="194" y="447" baseline-shift="baseline">🐷 猪肉</text></g><g ><rect fill="#ffffff" stroke="#e5e7eb" rx="4" ry="4" x="281" y="427" width="80" height="28"></rect><text fill="#000" font-size="16" x="289" y="447" baseline-shift="baseline">🥂 香槟</text></g><g ><rect fill="#ffffff" stroke="#e5e7eb" rx="4" ry="4" x="91" y="470" width="80" height="28"></rect><text fill="#000" font-size="16" x="99" y="490" baseline-shift="baseline">🦀 螃蟹</text></g><g ><rect fill="#ffffff" stroke="#e5e7eb" rx="4" ry="4" x="186" y="470" width="80" height="28"></rect><text fill="#000" font-size="16" x="194" y="490" baseline-shift="baseline">🍬 喜糖</text></g><g ><rect fill="#ffffff" stroke="#e5e7eb" rx="4" ry="4" x="281" y="470" width="96" height="28"></rect><text fill="#000" font-size="16" x="289" y="490" baseline-shift="baseline">🍒 车厘子</text></g><g ><rect fill="#ffffff" stroke="#e5e7eb" rx="4" ry="4" x="91" y="513" width="96" height="28"></rect><text fill="#000" font-size="16" x="99" y="533" baseline-shift="baseline">🥯 白糖糕</text></g><g ><rect fill="#ffffff" stroke="#e5e7eb" rx="4" ry="4" x="202" y="513" width="96" height="28"></rect><text fill="#000" font-size="16" x="210" y="533" baseline-shift="baseline">🍪 芝麻饼</text></g><g ><rect fill="#ffffff" stroke="#e5e7eb" rx="4" ry="4" x="313" y="513" width="96" height="28"></rect><text fill="#000" font-size="16" x="321" y="533" baseline-shift="baseline">🥗 凉拌菜</text></g><g ><rect fill="#ffffff" stroke="#e5e7eb" rx="4" ry="4" x="91" y="556" width="96" height="28"></rect><text fill="#000" font-size="16" x="99" y="576" baseline-shift="baseline">🍷 葡萄酒</text></g><g ><rect fill="#ffffff" stroke="#e5e7eb" rx="4" ry="4" x="202" y="556" width="112" height="28"></rect><text fill="#000" font-size="16" x="210" y="576" baseline-shift="baseline">🚄 高铁套餐</text></g><text fill="#000" font-size="20" x="32" y="427" baseline-shift="baseline">忌</text><line x1="76" y1="8" x2="76" y2="599.5" stroke="#e5e7eb" stroke-width="1"></line></svg>