<svg xmlns="http://www.w3.org/2000/svg" xmlns:xlink="http://www.w3.org/1999/xlink" width="476" height="994.5"><rect fill="#ffffff" stroke="#e5e7eb" rx="4" ry="4" x="8" y="8" width="460" height="978.5"></rect><g ><rect fill="#ffffff" stroke="#e5e7eb" rx="4" ry="4" x="91" y="23" width="58" height="28"></rect><text fill="#000" font-size="16" x="99" y="43" baseline-shift="baseline">🐟 鱼</text></g><g ><rect fill="#ffffff" stroke="#e5e7eb" rx="4" ry="4" x="164" y="23" width="74" height="28"></rect><text fill="#000" font-size="16" x="172" y="43" baseline-shift="baseline">🥗 沙拉</text></g><g ><rect fill="#ffffff" stroke="#e5e7eb" rx="4" ry="4" x="253" y="23" width="74" height="28"></rect><text fill="#000" font-size="16" x="261" y="43" baseline-shift="baseline">🍲 砂锅</text></g><g ><rect fill="#ffffff" stroke="#e5e7eb" rx="4" ry="4" x="342" y="23" width="74" height="28"></rect><text fill="#000" font-size="16" x="350" y="43" baseline-shift="baseline">🍜 米粉</text></g><g ><rect fill="#ffffff" stroke="#e5e7eb" rx="4" ry="4" x="91" y="66" width="74" height="28"></rect><text fill="#000" font-size="16" x="99" y="86" baseline-shift="baseline">🥔 土豆</text></g><g ><rect fill="#ffffff" stroke="#e5e7eb" rx="4" ry="4" x="180" y="66" width="74" height="28"></rect><text fill="#000" font-size="16" x="188" y="86" baseline-shift="baseline">🦆 烤鸭</text></g><g ><rect fill="#ffffff" stroke="#e5e7eb" rx="4" ry="4" x="269" y="66" width="74" height="28"></rect><text fill="#000" font-size="16" x="277" y="86" baseline-shift="baseline">🍷 红酒</text></g><g ><rect fill="#ffffff" stroke="#e5e7eb" rx="4" ry="4" x="358" y="66" width="74" height="28"></rect><text fill="#000" font-size="16" x="366" y="86" baseline-shift="baseline">🥥 椰子</text></g><g ><rect fill="#ffffff" stroke="#e5e7eb" rx="4" ry="4" x="91" y="109" width="74" height="28"></rect><text fill="#000" font-size="16" x="99" y="129" baseline-shift="baseline">🌰 栗子</text></g><g ><rect fill="#ffffff" stroke="#e5e7eb" rx="4" ry="4" x="180" y="109" width="74" height="28"></rect><text fill="#000" font-size="16" x="188" y="129" baseline-shift="baseline">🎍 莲子</text></g><g ><rect fill="#ffffff" stroke="#e5e7eb" rx="4" ry="4" x="269" y="109" width="74" height="28"></rect><text fill="#000" font-size="16" x="277" y="129" baseline-shift="baseline">🥚 鸡蛋</text></g><g ><rect fill="#ffffff" stroke="#e5e7eb" rx="4" ry="4" x="358" y="109" width="74" height="28"></rect><text fill="#000" font-size="16" x="366" y="129" baseline-shift="baseline">🐖 猪蹄</text></g><g ><rect fill="#ffffff" stroke="#e5e7eb" rx="4" ry="4" x="91" y="152" width="74" height="28"></rect><text fill="#000" font-size="16" x="99" y="172" baseline-shift="baseline">🥒 黄瓜</text></g><g ><rect fill="#ffffff" stroke="#e5e7eb" rx="4" ry="4" x="180" y="152" width="74" height="28"></rect><text fill="#000" font-size="16" x="188" y="172" baseline-shift="baseline">🐟 鱼翅</text></g><g ><rect fill="#ffffff" stroke="#e5e7eb" rx="4" ry="4" x="269" y="152" width="74" height="28"></rect><text fill="#000" font-size="16" x="277" y="172" baseline-shift="baseline">🦪 鲍鱼</text></g><g ><rect fill="#ffffff" stroke="#e5e7eb" rx="4" ry="4" x="358" y="152" width="74" height="28"></rect><text fill="#000" font-size="16" x="366" y="172" baseline-shift="baseline">🍺 啤酒</text></g><g ><rect fill="#ffffff" stroke="#e5e7eb" rx="4" ry="4" x="91" y="195" width="74" height="28"></rect><text fill="#000" font-size="16" x="99" y="215" baseline-shift="baseline">🧀 奶酪</text></g><g ><rect fill="#ffffff" stroke="#e5e7eb" rx="4" ry="4" x="180" y="195" width="74" height="28"></rect><text fill="#000" font-size="16" x="188" y="215" baseline-shift="baseline">🍪 曲奇</text></g><g ><rect fill="#ffffff" stroke="#e5e7eb" rx="4" ry="4" x="269" y="195" width="74" height="28"></rect><text fill="#000" font-size="16" x="277" y="215" baseline-shift="baseline">🍪 饼干</text></g><g ><rect fill="#ffffff" stroke="#e5e7eb" rx="4" ry="4" x="358" y="195" width="74" height="28"></rect><text fill="#000" font-size="16" x="366" y="215" baseline-shift="baseline">🍖 排骨</text></g><g ><rect fill="#ffffff" stroke="#e5e7eb" rx="4" ry="4" x="91" y="238" width="74" height="28"></rect><text fill="#000" font-size="16" x="99" y="258" baseline-shift="baseline">🍍 菠萝</text></g><g ><rect fill="#ffffff" stroke="#e5e7eb" rx="4" ry="4" x="180" y="238" width="74" height="28"></rect><text fill="#000" font-size="16" x="188" y="258" baseline-shift="baseline">🥜 花生</text></g><g ><rect fill="#ffffff" stroke="#e5e7eb" rx="4" ry="4" x="269" y="238" width="74" height="28"></rect><text fill="#000" font-size="16" x="277" y="258" baseline-shift="baseline">🍇 葡萄</text></g><g ><rect fill="#ffffff" stroke="#e5e7eb" rx="4" ry="4" x="358" y="238" width="74" height="28"></rect><text fill="#000" font-size="16" x="366" y="258" baseline-shift="baseline">🍋 柠檬</text></g><g ><rect fill="#ffffff" stroke="#e5e7eb" rx="4" ry="4" x="91" y="281" width="82" height="28"></rect><text fill="#000" font-size="16" x="99" y="301" baseline-shift="baseline">🌶️ 辣椒</text></g><g ><rect fill="#ffffff" stroke="#e5e7eb" rx="4" ry="4" x="188" y="281" width="82" height="28"></rect><text fill="#000" font-size="16" x="196" y="301" baseline-shift="baseline">🕊️ 燕窝</text></g><g ><rect fill="#ffffff" stroke="#e5e7eb" rx="4" ry="4" x="285" y="281" width="74" height="28"></rect><text fill="#000" font-size="16" x="293" y="301" baseline-shift="baseline">🍊 柚子</text></g><g ><rect fill="#ffffff" stroke="#e5e7eb" rx="4" ry="4" x="91" y="324" width="74" height="28"></rect><text fill="#000" font-size="16" x="99" y="344" baseline-shift="baseline">🌰 核桃</text></g><g ><rect fill="#ffffff" stroke="#e5e7eb" rx="4" ry="4" x="180" y="324" width="74" height="28"></rect><text fill="#000" font-size="16" x="188" y="344" baseline-shift="baseline">🍎 苹果</text></g><g ><rect fill="#ffffff" stroke="#e5e7eb" rx="4" ry="4" x="269" y="324" width="74" height="28"></rect><text fill="#000" font-size="16" x="277" y="344" baseline-shift="baseline">🍵 清茶</text></g><g ><rect fill="#ffffff" stroke="#e5e7eb" rx="4" ry="4" x="358" y="324" width="74" height="28"></rect><text fill="#000" font-size="16" x="366" y="344" baseline-shift="baseline">🥯 年糕</text></g><g ><rect fill="#ffffff" stroke="#e5e7eb" rx="4" ry="4" x="91" y="367" width="74" height="28"></rect><text fill="#000" font-size="16" x="99" y="387" baseline-shift="baseline">🍊 橘子</text></g><g ><rect fill="#ffffff" stroke="#e5e7eb" rx="4" ry="4" x="180" y="367" width="74" height="28"></rect><text fill="#000" font-size="16" x="188" y="387" baseline-shift="baseline">🍵 茶叶</text></g><g ><rect fill="#ffffff" stroke="#e5e7eb" rx="4" ry="4" x="269" y="367" width="74" height="28"></rect><text fill="#000" font-size="16" x="277" y="387" baseline-shift="baseline">🥂 香槟</text></g><g ><rect fill="#ffffff" stroke="#e5e7eb" rx="4" ry="4" x="358" y="367" width="74" height="28"></rect><text fill="#000" font-size="16" x="366" y="387" baseline-shift="baseline">🍬 喜糖</text></g><g ><rect fill="#ffffff" stroke="#e5e7eb" rx="4" ry="4" x="91" y="410" width="90" height="28"></rect><text fill="#000" font-size="16" x="99" y="430" baseline-shift="baseline">🍒 车厘子</text></g><g ><rect fill="#ffffff" stroke="#e5e7eb" rx="4" ry="4" x="196" y="410" width="90" height="28"></rect><text fill="#000" font-size="16" x="204" y="430" baseline-shift="baseline">🐂 金钱肚</text></g><g ><rect fill="#ffffff" stroke="#e5e7eb" rx="4" ry="4" x="301" y="410" width="90" height="28"></rect><text fill="#000" font-size="16" x="309" y="430" baseline-shift="baseline">🍩 甜甜圈</text></g><g ><rect fill="#ffffff" stroke="#e5e7eb" rx="4" ry="4" x="91" y="453" width="90" height="28"></rect><text fill="#000" font-size="16" x="99" y="473" baseline-shift="baseline">🧉 马黛茶</text></g><g ><rect fill="#ffffff" stroke="#e5e7eb" rx="4" ry="4" x="196" y="453" width="90" height="28"></rect><text fill="#000" font-size="16" x="204" y="473" baseline-shift="baseline">🍀 龟苓膏</text></g><g ><rect fill="#ffffff" stroke="#e5e7eb" rx="4" ry="4" x="301" y="453" width="90" height="28"></rect><text fill="#000" font-size="16" x="309" y="473" baseline-shift="baseline">🥗 凉拌菜</text></g><g ><rect fill="#ffffff" stroke="#e5e7eb" rx="4" ry="4" x="91" y="496" width="90" height="28"></rect><text fill="#000" font-size="16" x="99" y="516" baseline-shift="baseline">🍷 葡萄酒</text></g><g ><rect fill="#ffffff" stroke="#e5e7eb" rx="4" ry="4" x="196" y="496" width="106" height="28"></rect><text fill="#000" font-size="16" x="204" y="516" baseline-shift="baseline">🍝 意大利面</text></g><g ><rect fill="#ffffff" stroke="#e5e7eb" rx="4" ry="4" x="317" y="496" width="106" height="28"></rect><text fill="#000" font-size="16" x="325" y="516" baseline-shift="baseline">🚄 高铁套餐</text></g><text fill="#000" font-size="20" x="30" y="281" baseline-shift="baseline">宜</text><line x1="8" y1="541" x2="468" y2="541" stroke="#e5e7eb" stroke-width="1"></line><g ><rect fill="#ffffff" stroke="#e5e7eb" rx="4" ry="4" x="91" y="556" width="58" height="28"></rect><text fill="#000" font-size="16" x="99" y="576" baseline-shift="baseline">🥣 粥</text></g><g ><rect fill="#ffffff" stroke="#e5e7eb" rx="4" ry="4" x="164" y="556" width="74" height="28"></rect><text fill="#000" font-size="16" x="172" y="576" baseline-shift="baseline">🌽 玉米</text></g><g ><rect fill="#ffffff" stroke="#e5e7eb" rx="4" ry="4" x="253" y="556" width="74" height="28"></rect><text fill="#000" font-size="16" x="261" y="576" baseline-shift="baseline">🌺 莲藕</text></g><g ><rect fill="#ffffff" stroke="#e5e7eb" rx="4" ry="4" x="342" y="556" width="74" height="28"></rect><text fill="#000" font-size="16" x="350" y="576" baseline-shift="baseline">🍠 红薯</text></g><g ><rect fill="#ffffff" stroke="#e5e7eb" rx="4" ry="4" x="91" y="599" width="74" height="28"></rect><text fill="#000" font-size="16" x="99" y="619" baseline-shift="baseline">🍚 米饭</text></g><g ><rect fill="#ffffff" stroke="#e5e7eb" rx="4" ry="4" x="180" y="599" width="74" height="28"></rect><text fill="#000" font-size="16" x="188" y="619" baseline-shift="baseline">🌿 花茶</text></g><g ><rect fill="#ffffff" stroke="#e5e7eb" rx="4" ry="4" x="269" y="599" width="74" height="28"></rect><text fill="#000" font-size="16" x="277" y="619" baseline-shift="baseline">🌹 花瓣</text></g><g ><rect fill="#ffffff" stroke="#e5e7eb" rx="4" ry="4" x="358" y="599" width="74" height="28"></rect><text fill="#000" font-size="16" x="366" y="619" baseline-shift="baseline">🍎 石榴</text></g><g ><rect fill="#ffffff" stroke="#e5e7eb" rx="4" ry="4" x="91" y="642" width="74" height="28"></rect><text fill="#000" font-size="16" x="99" y="662" baseline-shift="baseline">🍒 李子</text></g><g ><rect fill="#ffffff" stroke="#e5e7eb" rx="4" ry="4" x="180" y="642" width="74" height="28"></rect><text fill="#000" font-size="16" x="188" y="662" baseline-shift="baseline">🍯 蜂蜜</text></g><g ><rect fill="#ffffff" stroke="#e5e7eb" rx="4" ry="4" x="269" y="642" width="74" height="28"></rect><text fill="#000" font-size="16" x="277" y="662" baseline-shift="baseline">🍈 龙眼</text></g><g ><rect fill="#ffffff" stroke="#e5e7eb" rx="4" ry="4" x="358" y="642" width="74" height="28"></rect><text fill="#000" font-size="16" x="366" y="662" baseline-shift="baseline">🍄 香菇</text></g><g ><rect fill="#ffffff" stroke="#e5e7eb" rx="4" ry="4" x="91" y="685" width="74" height="28"></rect><text fill="#000" font-size="16" x="99" y="705" baseline-shift="baseline">🦀 螃蟹</text></g><g ><rect fill="#ffffff" stroke="#e5e7eb" rx="4" ry="4" x="180" y="685" width="74" height="28"></rect><text fill="#000" font-size="16" x="188" y="705" baseline-shift="baseline">🍠 芋头</text></g><g ><rect fill="#ffffff" stroke="#e5e7eb" rx="4" ry="4" x="269" y="685" width="74" height="28"></rect><text fill="#000" font-size="16" x="277" y="705" baseline-shift="baseline">🥯 白果</text></g><g ><rect fill="#ffffff" stroke="#e5e7eb" rx="4" ry="4" x="358" y="685" width="74" height="28"></rect><text fill="#000" font-size="16" x="366" y="705" baseline-shift="baseline">🍂 香料</text></g><g ><rect fill="#ffffff" stroke="#e5e7eb" rx="4" ry="4" x="91" y="728" width="74" height="28"></rect><text fill="#000" font-size="16" x="99" y="748" baseline-shift="baseline">🌰 松子</text></g><g ><rect fill="#ffffff" stroke="#e5e7eb" rx="4" ry="4" x="180" y="728" width="74" height="28"></rect><text fill="#000" font-size="16" x="188" y="748" baseline-shift="baseline">🌼 菊花</text></g><g ><rect fill="#ffffff" stroke="#e5e7eb" rx="4" ry="4" x="269" y="728" width="74" height="28"></rect><text fill="#000" font-size="16" x="277" y="748" baseline-shift="baseline">🍅 番茄</text></g><g ><rect fill="#ffffff" stroke="#e5e7eb" rx="4" ry="4" x="358" y="728" width="74" height="28"></rect><text fill="#000" font-size="16" x="366" y="748" baseline-shift="baseline">🍓 草莓</text></g><g ><rect fill="#ffffff" stroke="#e5e7eb" rx="4" ry="4" x="91" y="771" width="74" height="28"></rect><text fill="#000" font-size="16" x="99" y="791" baseline-shift="baseline">🍉 西瓜</text></g><g ><rect fill="#ffffff" stroke="#e5e7eb" rx="4" ry="4" x="180" y="771" width="74" height="28"></rect><text fill="#000" font-size="16" x="188" y="791" baseline-shift="baseline">🧀 芝士</text></g><g ><rect fill="#ffffff" stroke="#e5e7eb" rx="4" ry="4" x="269" y="771" width="74" height="28"></rect><text fill="#000" font-size="16" x="277" y="791" baseline-shift="baseline">🥟 饺子</text></g><g ><rect fill="#ffffff" stroke="#e5e7eb" rx="4" ry="4" x="358" y="771" width="74" height="28"></rect><text fill="#000" font-size="16" x="366" y="791" baseline-shift="baseline">🦞 龙虾</text></g><g ><rect fill="#ffffff" stroke="#e5e7eb" rx="4" ry="4" x="91" y="814" width="74" height="28"></rect><text fill="#000" font-size="16" x="99" y="834" baseline-shift="baseline">🦢 鹅肉</text></g><g ><rect fill="#ffffff" stroke="#e5e7eb" rx="4" ry="4" x="180" y="814" width="74" height="28"></rect><text fill="#000" font-size="16" x="188" y="834" baseline-shift="baseline">🦆 鸭肉</text></g><g ><rect fill="#ffffff" stroke="#e5e7eb" rx="4" ry="4" x="269" y="814" width="74" height="28"></rect><text fill="#000" font-size="16" x="277" y="834" baseline-shift="baseline">🐄 牛肉</text></g><g ><rect fill="#ffffff" stroke="#e5e7eb" rx="4" ry="4" x="358" y="814" width="74" height="28"></rect><text fill="#000" font-size="16" x="366" y="834" baseline-shift="baseline">🐏 羊肉</text></g><g ><rect fill="#ffffff" stroke="#e5e7eb" rx="4" ry="4" x="91" y="857" width="74" height="28"></rect><text fill="#000" font-size="16" x="99" y="877" baseline-shift="baseline">🐷 猪肉</text></g><g ><rect fill="#ffffff" stroke="#e5e7eb" rx="4" ry="4" x="180" y="857" width="90" height="28"></rect><text fill="#000" font-size="16" x="188" y="877" baseline-shift="baseline">🌷 茉莉花</text></g><g ><rect fill="#ffffff" stroke="#e5e7eb" rx="4" ry="4" x="285" y="857" width="90" height="28"></rect><text fill="#000" font-size="16" x="293" y="877" baseline-shift="baseline">🍜 小麦面</text></g><g ><rect fill="#ffffff" stroke="#e5e7eb" rx="4" ry="4" x="91" y="900" width="90" height="28"></rect><text fill="#000" font-size="16" x="99" y="920" baseline-shift="baseline">🥯 白糖糕</text></g><g ><rect fill="#ffffff" stroke="#e5e7eb" rx="4" ry="4" x="196" y="900" width="90" height="28"></rect><text fill="#000" font-size="16" x="204" y="920" baseline-shift="baseline">🍪 芝麻饼</text></g><g ><rect fill="#ffffff" stroke="#e5e7eb" rx="4" ry="4" x="301" y="900" width="90" height="28"></rect><text fill="#000" font-size="16" x="309" y="920" baseline-shift="baseline">🥦 西兰花</text></g><g ><rect fill="#ffffff" stroke="#e5e7eb" rx="4" ry="4" x="91" y="943" width="90" height="28"></rect><text fill="#000" font-size="16" x="99" y="963" baseline-shift="baseline">🥕 胡萝卜</text></g><text fill="#000" font-size="20" x="30" y="771" baseline-shift="baseline">忌</text><line x1="76" y1="8" x2="76" y2="986.5" stroke="#e5e7eb" stroke-width="1"></line></svg>