<svg xmlns="http://www.w3.org/2000/svg" xmlns:xlink="http://www.w3.org/1999/xlink" width="476" height="306.5"><rect fill="#ffffff" stroke="#e5e7eb" rx="4" ry="4" x="8" y="8" width="460" height="290.5"></rect><g ><rect fill="#ffffff" stroke="#e5e7eb" rx="4" ry="4" x="91" y="23" width="74" height="28"></rect><text fill="#000" font-size="16" x="99" y="43" baseline-shift="baseline">🍯 蜂蜜</text></g><g ><rect fill="#ffffff" stroke="#e5e7eb" rx="4" ry="4" x="180" y="23" width="74" height="28"></rect><text fill="#000" font-size="16" x="188" y="43" baseline-shift="baseline">🍋 柠檬</text></g><g ><rect fill="#ffffff" stroke="#e5e7eb" rx="4" ry="4" x="269" y="23" width="90" height="28"></rect><text fill="#000" font-size="16" x="277" y="43" baseline-shift="baseline">🥑 牛油果</text></g><g ><rect fill="#ffffff" stroke="#e5e7eb" rx="4" ry="4" x="91" y="66" width="90" height="28"></rect><text fill="#000" font-size="16" x="99" y="86" baseline-shift="baseline">🌼 薰衣草</text></g><g ><rect fill="#ffffff" stroke="#e5e7eb" rx="4" ry="4" x="196" y="66" width="130" height="28"></rect><text fill="#000" font-size="16" x="204" y="86" baseline-shift="baseline">👩‍🍳 别的少吃</text></g><g ><rect fill="#ffffff" stroke="#e5e7eb" rx="4" ry="4" x="91" y="109" width="106" height="28"></rect><text fill="#000" font-size="16" x="99" y="129" baseline-shift="baseline">🌹 玫瑰花瓣</text></g><text fill="#000" font-size="20" x="30" y="87.5" baseline-shift="baseline">宜</text><line x1="8" y1="154" x2="468" y2="154" stroke="#e5e7eb" stroke-width="1"></line><g ><rect fill="#ffffff" stroke="#e5e7eb" rx="4" ry="4" x="91" y="169" width="74" height="28"></rect><text fill="#000" font-size="16" x="99" y="189" baseline-shift="baseline">🍠 芋头</text></g><g ><rect fill="#ffffff" stroke="#e5e7eb" rx="4" ry="4" x="180" y="169" width="74" height="28"></rect><text fill="#000" font-size="16" x="188" y="189" baseline-shift="baseline">🥯 白果</text></g><g ><rect fill="#ffffff" stroke="#e5e7eb" rx="4" ry="4" x="269" y="169" width="74" height="28"></rect><text fill="#000" font-size="16" x="277" y="189" baseline-shift="baseline">🍂 香料</text></g><g ><rect fill="#ffffff" stroke="#e5e7eb" rx="4" ry="4" x="358" y="169" width="74" height="28"></rect><text fill="#000" font-size="16" x="366" y="189" baseline-shift="baseline">🌰 松子</text></g><g ><rect fill="#ffffff" stroke="#e5e7eb" rx="4" ry="4" x="91" y="212" width="74" height="28"></rect><text fill="#000" font-size="16" x="99" y="232" baseline-shift="baseline">🌼 菊花</text></g><g ><rect fill="#ffffff" stroke="#e5e7eb" rx="4" ry="4" x="180" y="212" width="74" height="28"></rect><text fill="#000" font-size="16" x="188" y="232" baseline-shift="baseline">🍊 柚子</text></g><g ><rect fill="#ffffff" stroke="#e5e7eb" rx="4" ry="4" x="269" y="212" width="74" height="28"></rect><text fill="#000" font-size="16" x="277" y="232" baseline-shift="baseline">🥯 年糕</text></g><g ><rect fill="#ffffff" stroke="#e5e7eb" rx="4" ry="4" x="358" y="212" width="74" height="28"></rect><text fill="#000" font-size="16" x="366" y="232" baseline-shift="baseline">🌰 核桃</text></g><g ><rect fill="#ffffff" stroke="#e5e7eb" rx="4" ry="4" x="91" y="255" width="74" height="28"></rect><text fill="#000" font-size="16" x="99" y="275" baseline-shift="baseline">🍎 苹果</text></g><g ><rect fill="#ffffff" stroke="#e5e7eb" rx="4" ry="4" x="180" y="255" width="74" height="28"></rect><text fill="#000" font-size="16" x="188" y="275" baseline-shift="baseline">🍵 清茶</text></g><text fill="#000" font-size="20" x="30" y="233.5" baseline-shift="baseline">忌</text><line x1="76" y1="8" x2="76" y2="298.5" stroke="#e5e7eb" stroke-width="1"></line></svg>