<svg xmlns="http://www.w3.org/2000/svg" xmlns:xlink="http://www.w3.org/1999/xlink" width="476" height="607.5"><rect fill="#ffffff" stroke="#e5e7eb" rx="4" ry="4" x="8" y="8" width="460" height="591.5"></rect><g ><rect fill="#ffffff" stroke="#e5e7eb" rx="4" ry="4" x="91" y="23" width="74" height="28"></rect><text fill="#000" font-size="16" x="99" y="43" baseline-shift="baseline">🥯 白果</text></g><g ><rect fill="#ffffff" stroke="#e5e7eb" rx="4" ry="4" x="180" y="23" width="74" height="28"></rect><text fill="#000" font-size="16" x="188" y="43" baseline-shift="baseline">🍂 香料</text></g><g ><rect fill="#ffffff" stroke="#e5e7eb" rx="4" ry="4" x="269" y="23" width="74" height="28"></rect><text fill="#000" font-size="16" x="277" y="43" baseline-shift="baseline">🌺 莲藕</text></g><g ><rect fill="#ffffff" stroke="#e5e7eb" rx="4" ry="4" x="358" y="23" width="74" height="28"></rect><text fill="#000" font-size="16" x="366" y="43" baseline-shift="baseline">🍜 米粉</text></g><g ><rect fill="#ffffff" stroke="#e5e7eb" rx="4" ry="4" x="91" y="66" width="74" height="28"></rect><text fill="#000" font-size="16" x="99" y="86" baseline-shift="baseline">🍠 芋头</text></g><g ><rect fill="#ffffff" stroke="#e5e7eb" rx="4" ry="4" x="180" y="66" width="74" height="28"></rect><text fill="#000" font-size="16" x="188" y="86" baseline-shift="baseline">🌼 菊花</text></g><g ><rect fill="#ffffff" stroke="#e5e7eb" rx="4" ry="4" x="269" y="66" width="74" height="28"></rect><text fill="#000" font-size="16" x="277" y="86" baseline-shift="baseline">🌿 花茶</text></g><g ><rect fill="#ffffff" stroke="#e5e7eb" rx="4" ry="4" x="358" y="66" width="74" height="28"></rect><text fill="#000" font-size="16" x="366" y="86" baseline-shift="baseline">🌹 花瓣</text></g><g ><rect fill="#ffffff" stroke="#e5e7eb" rx="4" ry="4" x="91" y="109" width="74" height="28"></rect><text fill="#000" font-size="16" x="99" y="129" baseline-shift="baseline">🍄 香菇</text></g><g ><rect fill="#ffffff" stroke="#e5e7eb" rx="4" ry="4" x="180" y="109" width="74" height="28"></rect><text fill="#000" font-size="16" x="188" y="129" baseline-shift="baseline">🧅 大葱</text></g><g ><rect fill="#ffffff" stroke="#e5e7eb" rx="4" ry="4" x="269" y="109" width="74" height="28"></rect><text fill="#000" font-size="16" x="277" y="129" baseline-shift="baseline">🥜 花生</text></g><g ><rect fill="#ffffff" stroke="#e5e7eb" rx="4" ry="4" x="358" y="109" width="74" height="28"></rect><text fill="#000" font-size="16" x="366" y="129" baseline-shift="baseline">🌰 芝麻</text></g><g ><rect fill="#ffffff" stroke="#e5e7eb" rx="4" ry="4" x="91" y="152" width="74" height="28"></rect><text fill="#000" font-size="16" x="99" y="172" baseline-shift="baseline">🍚 糯米</text></g><g ><rect fill="#ffffff" stroke="#e5e7eb" rx="4" ry="4" x="180" y="152" width="74" height="28"></rect><text fill="#000" font-size="16" x="188" y="172" baseline-shift="baseline">🌲 松子</text></g><g ><rect fill="#ffffff" stroke="#e5e7eb" rx="4" ry="4" x="269" y="152" width="74" height="28"></rect><text fill="#000" font-size="16" x="277" y="172" baseline-shift="baseline">🍯 蜂蜜</text></g><g ><rect fill="#ffffff" stroke="#e5e7eb" rx="4" ry="4" x="358" y="152" width="74" height="28"></rect><text fill="#000" font-size="16" x="366" y="172" baseline-shift="baseline">🍋 柠檬</text></g><g ><rect fill="#ffffff" stroke="#e5e7eb" rx="4" ry="4" x="91" y="195" width="90" height="28"></rect><text fill="#000" font-size="16" x="99" y="215" baseline-shift="baseline">🌷 茉莉花</text></g><g ><rect fill="#ffffff" stroke="#e5e7eb" rx="4" ry="4" x="196" y="195" width="90" height="28"></rect><text fill="#000" font-size="16" x="204" y="215" baseline-shift="baseline">🥑 牛油果</text></g><g ><rect fill="#ffffff" stroke="#e5e7eb" rx="4" ry="4" x="301" y="195" width="90" height="28"></rect><text fill="#000" font-size="16" x="309" y="215" baseline-shift="baseline">🌼 薰衣草</text></g><g ><rect fill="#ffffff" stroke="#e5e7eb" rx="4" ry="4" x="91" y="238" width="106" height="28"></rect><text fill="#000" font-size="16" x="99" y="258" baseline-shift="baseline">🌹 玫瑰花瓣</text></g><text fill="#000" font-size="20" x="30" y="152" baseline-shift="baseline">宜</text><line x1="8" y1="283" x2="468" y2="283" stroke="#e5e7eb" stroke-width="1"></line><g ><rect fill="#ffffff" stroke="#e5e7eb" rx="4" ry="4" x="91" y="298" width="58" height="28"></rect><text fill="#000" font-size="16" x="99" y="318" baseline-shift="baseline">🐟 鱼</text></g><g ><rect fill="#ffffff" stroke="#e5e7eb" rx="4" ry="4" x="164" y="298" width="74" height="28"></rect><text fill="#000" font-size="16" x="172" y="318" baseline-shift="baseline">🍊 柚子</text></g><g ><rect fill="#ffffff" stroke="#e5e7eb" rx="4" ry="4" x="253" y="298" width="74" height="28"></rect><text fill="#000" font-size="16" x="261" y="318" baseline-shift="baseline">🌰 核桃</text></g><g ><rect fill="#ffffff" stroke="#e5e7eb" rx="4" ry="4" x="342" y="298" width="74" height="28"></rect><text fill="#000" font-size="16" x="350" y="318" baseline-shift="baseline">🍎 苹果</text></g><g ><rect fill="#ffffff" stroke="#e5e7eb" rx="4" ry="4" x="91" y="341" width="74" height="28"></rect><text fill="#000" font-size="16" x="99" y="361" baseline-shift="baseline">🍵 清茶</text></g><g ><rect fill="#ffffff" stroke="#e5e7eb" rx="4" ry="4" x="180" y="341" width="74" height="28"></rect><text fill="#000" font-size="16" x="188" y="361" baseline-shift="baseline">🥯 年糕</text></g><g ><rect fill="#ffffff" stroke="#e5e7eb" rx="4" ry="4" x="269" y="341" width="74" height="28"></rect><text fill="#000" font-size="16" x="277" y="361" baseline-shift="baseline">🍊 橘子</text></g><g ><rect fill="#ffffff" stroke="#e5e7eb" rx="4" ry="4" x="358" y="341" width="74" height="28"></rect><text fill="#000" font-size="16" x="366" y="361" baseline-shift="baseline">🍵 茶叶</text></g><g ><rect fill="#ffffff" stroke="#e5e7eb" rx="4" ry="4" x="91" y="384" width="74" height="28"></rect><text fill="#000" font-size="16" x="99" y="404" baseline-shift="baseline">🍚 米饭</text></g><g ><rect fill="#ffffff" stroke="#e5e7eb" rx="4" ry="4" x="180" y="384" width="74" height="28"></rect><text fill="#000" font-size="16" x="188" y="404" baseline-shift="baseline">🐖 猪肉</text></g><g ><rect fill="#ffffff" stroke="#e5e7eb" rx="4" ry="4" x="269" y="384" width="74" height="28"></rect><text fill="#000" font-size="16" x="277" y="404" baseline-shift="baseline">🌰 栗子</text></g><g ><rect fill="#ffffff" stroke="#e5e7eb" rx="4" ry="4" x="358" y="384" width="74" height="28"></rect><text fill="#000" font-size="16" x="366" y="404" baseline-shift="baseline">🎍 莲子</text></g><g ><rect fill="#ffffff" stroke="#e5e7eb" rx="4" ry="4" x="91" y="427" width="74" height="28"></rect><text fill="#000" font-size="16" x="99" y="447" baseline-shift="baseline">🥚 鸡蛋</text></g><g ><rect fill="#ffffff" stroke="#e5e7eb" rx="4" ry="4" x="180" y="427" width="74" height="28"></rect><text fill="#000" font-size="16" x="188" y="447" baseline-shift="baseline">🐖 猪蹄</text></g><g ><rect fill="#ffffff" stroke="#e5e7eb" rx="4" ry="4" x="269" y="427" width="74" height="28"></rect><text fill="#000" font-size="16" x="277" y="447" baseline-shift="baseline">🍅 番茄</text></g><g ><rect fill="#ffffff" stroke="#e5e7eb" rx="4" ry="4" x="358" y="427" width="74" height="28"></rect><text fill="#000" font-size="16" x="366" y="447" baseline-shift="baseline">🍓 草莓</text></g><g ><rect fill="#ffffff" stroke="#e5e7eb" rx="4" ry="4" x="91" y="470" width="74" height="28"></rect><text fill="#000" font-size="16" x="99" y="490" baseline-shift="baseline">🍉 西瓜</text></g><g ><rect fill="#ffffff" stroke="#e5e7eb" rx="4" ry="4" x="180" y="470" width="74" height="28"></rect><text fill="#000" font-size="16" x="188" y="490" baseline-shift="baseline">🥂 香槟</text></g><g ><rect fill="#ffffff" stroke="#e5e7eb" rx="4" ry="4" x="269" y="470" width="74" height="28"></rect><text fill="#000" font-size="16" x="277" y="490" baseline-shift="baseline">🦀 螃蟹</text></g><g ><rect fill="#ffffff" stroke="#e5e7eb" rx="4" ry="4" x="358" y="470" width="74" height="28"></rect><text fill="#000" font-size="16" x="366" y="490" baseline-shift="baseline">🍬 喜糖</text></g><g ><rect fill="#ffffff" stroke="#e5e7eb" rx="4" ry="4" x="91" y="513" width="90" height="28"></rect><text fill="#000" font-size="16" x="99" y="533" baseline-shift="baseline">🥦 西兰花</text></g><g ><rect fill="#ffffff" stroke="#e5e7eb" rx="4" ry="4" x="196" y="513" width="90" height="28"></rect><text fill="#000" font-size="16" x="204" y="533" baseline-shift="baseline">🥕 胡萝卜</text></g><g ><rect fill="#ffffff" stroke="#e5e7eb" rx="4" ry="4" x="301" y="513" width="90" height="28"></rect><text fill="#000" font-size="16" x="309" y="533" baseline-shift="baseline">🥗 凉拌菜</text></g><g ><rect fill="#ffffff" stroke="#e5e7eb" rx="4" ry="4" x="91" y="556" width="90" height="28"></rect><text fill="#000" font-size="16" x="99" y="576" baseline-shift="baseline">🍷 葡萄酒</text></g><text fill="#000" font-size="20" x="30" y="448.5" baseline-shift="baseline">忌</text><line x1="76" y1="8" x2="76" y2="599.5" stroke="#e5e7eb" stroke-width="1"></line></svg>