<svg xmlns="http://www.w3.org/2000/svg" xmlns:xlink="http://www.w3.org/1999/xlink" width="476" height="650.5"><rect fill="#ffffff" stroke="#e5e7eb" rx="4" ry="4" x="8" y="8" width="460" height="634.5"></rect><g ><rect fill="#ffffff" stroke="#e5e7eb" rx="4" ry="4" x="91" y="23" width="58" height="28"></rect><text fill="#000" font-size="16" x="99" y="43" baseline-shift="baseline">🐟 鱼</text></g><g ><rect fill="#ffffff" stroke="#e5e7eb" rx="4" ry="4" x="164" y="23" width="74" height="28"></rect><text fill="#000" font-size="16" x="172" y="43" baseline-shift="baseline">🌺 莲藕</text></g><g ><rect fill="#ffffff" stroke="#e5e7eb" rx="4" ry="4" x="253" y="23" width="74" height="28"></rect><text fill="#000" font-size="16" x="261" y="43" baseline-shift="baseline">🍜 米粉</text></g><g ><rect fill="#ffffff" stroke="#e5e7eb" rx="4" ry="4" x="342" y="23" width="74" height="28"></rect><text fill="#000" font-size="16" x="350" y="43" baseline-shift="baseline">🍠 芋头</text></g><g ><rect fill="#ffffff" stroke="#e5e7eb" rx="4" ry="4" x="91" y="66" width="74" height="28"></rect><text fill="#000" font-size="16" x="99" y="86" baseline-shift="baseline">🍮 布丁</text></g><g ><rect fill="#ffffff" stroke="#e5e7eb" rx="4" ry="4" x="180" y="66" width="74" height="28"></rect><text fill="#000" font-size="16" x="188" y="86" baseline-shift="baseline">🍞 面包</text></g><g ><rect fill="#ffffff" stroke="#e5e7eb" rx="4" ry="4" x="269" y="66" width="74" height="28"></rect><text fill="#000" font-size="16" x="277" y="86" baseline-shift="baseline">🌼 菊花</text></g><g ><rect fill="#ffffff" stroke="#e5e7eb" rx="4" ry="4" x="358" y="66" width="74" height="28"></rect><text fill="#000" font-size="16" x="366" y="86" baseline-shift="baseline">🌿 花茶</text></g><g ><rect fill="#ffffff" stroke="#e5e7eb" rx="4" ry="4" x="91" y="109" width="74" height="28"></rect><text fill="#000" font-size="16" x="99" y="129" baseline-shift="baseline">🌹 花瓣</text></g><g ><rect fill="#ffffff" stroke="#e5e7eb" rx="4" ry="4" x="180" y="109" width="74" height="28"></rect><text fill="#000" font-size="16" x="188" y="129" baseline-shift="baseline">🍄 香菇</text></g><g ><rect fill="#ffffff" stroke="#e5e7eb" rx="4" ry="4" x="269" y="109" width="74" height="28"></rect><text fill="#000" font-size="16" x="277" y="129" baseline-shift="baseline">🎍 芦笋</text></g><g ><rect fill="#ffffff" stroke="#e5e7eb" rx="4" ry="4" x="358" y="109" width="74" height="28"></rect><text fill="#000" font-size="16" x="366" y="129" baseline-shift="baseline">🥯 年糕</text></g><g ><rect fill="#ffffff" stroke="#e5e7eb" rx="4" ry="4" x="91" y="152" width="74" height="28"></rect><text fill="#000" font-size="16" x="99" y="172" baseline-shift="baseline">🍵 茶叶</text></g><g ><rect fill="#ffffff" stroke="#e5e7eb" rx="4" ry="4" x="180" y="152" width="74" height="28"></rect><text fill="#000" font-size="16" x="188" y="172" baseline-shift="baseline">🌰 栗子</text></g><g ><rect fill="#ffffff" stroke="#e5e7eb" rx="4" ry="4" x="269" y="152" width="74" height="28"></rect><text fill="#000" font-size="16" x="277" y="172" baseline-shift="baseline">🎍 莲子</text></g><g ><rect fill="#ffffff" stroke="#e5e7eb" rx="4" ry="4" x="358" y="152" width="74" height="28"></rect><text fill="#000" font-size="16" x="366" y="172" baseline-shift="baseline">🥚 鸡蛋</text></g><g ><rect fill="#ffffff" stroke="#e5e7eb" rx="4" ry="4" x="91" y="195" width="74" height="28"></rect><text fill="#000" font-size="16" x="99" y="215" baseline-shift="baseline">🐖 猪蹄</text></g><g ><rect fill="#ffffff" stroke="#e5e7eb" rx="4" ry="4" x="180" y="195" width="90" height="28"></rect><text fill="#000" font-size="16" x="188" y="215" baseline-shift="baseline">🍫 巧克力</text></g><g ><rect fill="#ffffff" stroke="#e5e7eb" rx="4" ry="4" x="285" y="195" width="90" height="28"></rect><text fill="#000" font-size="16" x="293" y="215" baseline-shift="baseline">🍨 冰淇淋</text></g><g ><rect fill="#ffffff" stroke="#e5e7eb" rx="4" ry="4" x="91" y="238" width="90" height="28"></rect><text fill="#000" font-size="16" x="99" y="258" baseline-shift="baseline">🌷 茉莉花</text></g><g ><rect fill="#ffffff" stroke="#e5e7eb" rx="4" ry="4" x="196" y="238" width="90" height="28"></rect><text fill="#000" font-size="16" x="204" y="258" baseline-shift="baseline">🐟 鱼子酱</text></g><text fill="#000" font-size="20" x="30" y="152" baseline-shift="baseline">宜</text><line x1="8" y1="283" x2="468" y2="283" stroke="#e5e7eb" stroke-width="1"></line><g ><rect fill="#ffffff" stroke="#e5e7eb" rx="4" ry="4" x="91" y="298" width="74" height="28"></rect><text fill="#000" font-size="16" x="99" y="318" baseline-shift="baseline">🍖 排骨</text></g><g ><rect fill="#ffffff" stroke="#e5e7eb" rx="4" ry="4" x="180" y="298" width="74" height="28"></rect><text fill="#000" font-size="16" x="188" y="318" baseline-shift="baseline">🍍 菠萝</text></g><g ><rect fill="#ffffff" stroke="#e5e7eb" rx="4" ry="4" x="269" y="298" width="74" height="28"></rect><text fill="#000" font-size="16" x="277" y="318" baseline-shift="baseline">🍊 橘子</text></g><g ><rect fill="#ffffff" stroke="#e5e7eb" rx="4" ry="4" x="358" y="298" width="74" height="28"></rect><text fill="#000" font-size="16" x="366" y="318" baseline-shift="baseline">🥜 花生</text></g><g ><rect fill="#ffffff" stroke="#e5e7eb" rx="4" ry="4" x="91" y="341" width="74" height="28"></rect><text fill="#000" font-size="16" x="99" y="361" baseline-shift="baseline">🍇 葡萄</text></g><g ><rect fill="#ffffff" stroke="#e5e7eb" rx="4" ry="4" x="180" y="341" width="74" height="28"></rect><text fill="#000" font-size="16" x="188" y="361" baseline-shift="baseline">🍺 啤酒</text></g><g ><rect fill="#ffffff" stroke="#e5e7eb" rx="4" ry="4" x="269" y="341" width="74" height="28"></rect><text fill="#000" font-size="16" x="277" y="361" baseline-shift="baseline">🧀 奶酪</text></g><g ><rect fill="#ffffff" stroke="#e5e7eb" rx="4" ry="4" x="358" y="341" width="74" height="28"></rect><text fill="#000" font-size="16" x="366" y="361" baseline-shift="baseline">🍪 曲奇</text></g><g ><rect fill="#ffffff" stroke="#e5e7eb" rx="4" ry="4" x="91" y="384" width="74" height="28"></rect><text fill="#000" font-size="16" x="99" y="404" baseline-shift="baseline">🍪 饼干</text></g><g ><rect fill="#ffffff" stroke="#e5e7eb" rx="4" ry="4" x="180" y="384" width="74" height="28"></rect><text fill="#000" font-size="16" x="188" y="404" baseline-shift="baseline">🍚 米饭</text></g><g ><rect fill="#ffffff" stroke="#e5e7eb" rx="4" ry="4" x="269" y="384" width="74" height="28"></rect><text fill="#000" font-size="16" x="277" y="404" baseline-shift="baseline">🥖 油条</text></g><g ><rect fill="#ffffff" stroke="#e5e7eb" rx="4" ry="4" x="358" y="384" width="74" height="28"></rect><text fill="#000" font-size="16" x="366" y="404" baseline-shift="baseline">🌾 五谷</text></g><g ><rect fill="#ffffff" stroke="#e5e7eb" rx="4" ry="4" x="91" y="427" width="74" height="28"></rect><text fill="#000" font-size="16" x="99" y="447" baseline-shift="baseline">🥂 香槟</text></g><g ><rect fill="#ffffff" stroke="#e5e7eb" rx="4" ry="4" x="180" y="427" width="74" height="28"></rect><text fill="#000" font-size="16" x="188" y="447" baseline-shift="baseline">🦀 螃蟹</text></g><g ><rect fill="#ffffff" stroke="#e5e7eb" rx="4" ry="4" x="269" y="427" width="74" height="28"></rect><text fill="#000" font-size="16" x="277" y="447" baseline-shift="baseline">🍬 喜糖</text></g><g ><rect fill="#ffffff" stroke="#e5e7eb" rx="4" ry="4" x="358" y="427" width="74" height="28"></rect><text fill="#000" font-size="16" x="366" y="447" baseline-shift="baseline">🍅 番茄</text></g><g ><rect fill="#ffffff" stroke="#e5e7eb" rx="4" ry="4" x="91" y="470" width="74" height="28"></rect><text fill="#000" font-size="16" x="99" y="490" baseline-shift="baseline">🍓 草莓</text></g><g ><rect fill="#ffffff" stroke="#e5e7eb" rx="4" ry="4" x="180" y="470" width="74" height="28"></rect><text fill="#000" font-size="16" x="188" y="490" baseline-shift="baseline">🍉 西瓜</text></g><g ><rect fill="#ffffff" stroke="#e5e7eb" rx="4" ry="4" x="269" y="470" width="74" height="28"></rect><text fill="#000" font-size="16" x="277" y="490" baseline-shift="baseline">🧀 芝士</text></g><g ><rect fill="#ffffff" stroke="#e5e7eb" rx="4" ry="4" x="358" y="470" width="74" height="28"></rect><text fill="#000" font-size="16" x="366" y="490" baseline-shift="baseline">🥟 饺子</text></g><g ><rect fill="#ffffff" stroke="#e5e7eb" rx="4" ry="4" x="91" y="513" width="74" height="28"></rect><text fill="#000" font-size="16" x="99" y="533" baseline-shift="baseline">🦞 龙虾</text></g><g ><rect fill="#ffffff" stroke="#e5e7eb" rx="4" ry="4" x="180" y="513" width="74" height="28"></rect><text fill="#000" font-size="16" x="188" y="533" baseline-shift="baseline">🥩 牛肉</text></g><g ><rect fill="#ffffff" stroke="#e5e7eb" rx="4" ry="4" x="269" y="513" width="74" height="28"></rect><text fill="#000" font-size="16" x="277" y="533" baseline-shift="baseline">🐷 猪肉</text></g><g ><rect fill="#ffffff" stroke="#e5e7eb" rx="4" ry="4" x="91" y="556" width="90" height="28"></rect><text fill="#000" font-size="16" x="99" y="576" baseline-shift="baseline">🍩 甜甜圈</text></g><g ><rect fill="#ffffff" stroke="#e5e7eb" rx="4" ry="4" x="196" y="556" width="90" height="28"></rect><text fill="#000" font-size="16" x="204" y="576" baseline-shift="baseline">🥗 凉拌菜</text></g><g ><rect fill="#ffffff" stroke="#e5e7eb" rx="4" ry="4" x="301" y="556" width="90" height="28"></rect><text fill="#000" font-size="16" x="309" y="576" baseline-shift="baseline">🍷 葡萄酒</text></g><g ><rect fill="#ffffff" stroke="#e5e7eb" rx="4" ry="4" x="91" y="599" width="90" height="28"></rect><text fill="#000" font-size="16" x="99" y="619" baseline-shift="baseline">🥦 西兰花</text></g><g ><rect fill="#ffffff" stroke="#e5e7eb" rx="4" ry="4" x="196" y="599" width="90" height="28"></rect><text fill="#000" font-size="16" x="204" y="619" baseline-shift="baseline">🥕 胡萝卜</text></g><text fill="#000" font-size="20" x="30" y="470" baseline-shift="baseline">忌</text><line x1="76" y1="8" x2="76" y2="642.5" stroke="#e5e7eb" stroke-width="1"></line></svg>