<svg xmlns="http://www.w3.org/2000/svg" xmlns:xlink="http://www.w3.org/1999/xlink" width="476" height="865.5"><style >text {
      font-family: Consolas, "Lucida Console", Monaco, "DejaVu Sans Mono", "Bitstream Vera Sans Mono", monospace;
      font-variant-numeric: tabular-nums;
    }</style><rect fill="#ffffff" stroke="#e5e7eb" rx="4" ry="4" x="8" y="8" width="460" height="849.5"></rect><g ><rect fill="#ffffff" stroke="#e5e7eb" rx="4" ry="4" x="91" y="23" width="64" height="28"></rect><text fill="#000" font-size="16" x="99" y="43" baseline-shift="baseline">🐟 鱼</text></g><g ><rect fill="#ffffff" stroke="#e5e7eb" rx="4" ry="4" x="170" y="23" width="64" height="28"></rect><text fill="#000" font-size="16" x="178" y="43" baseline-shift="baseline">🥣 粥</text></g><g ><rect fill="#ffffff" stroke="#e5e7eb" rx="4" ry="4" x="249" y="23" width="80" height="28"></rect><text fill="#000" font-size="16" x="257" y="43" baseline-shift="baseline">🍜 米粉</text></g><g ><rect fill="#ffffff" stroke="#e5e7eb" rx="4" ry="4" x="344" y="23" width="80" height="28"></rect><text fill="#000" font-size="16" x="352" y="43" baseline-shift="baseline">🍠 芋头</text></g><g ><rect fill="#ffffff" stroke="#e5e7eb" rx="4" ry="4" x="91" y="66" width="80" height="28"></rect><text fill="#000" font-size="16" x="99" y="86" baseline-shift="baseline">🥜 花生</text></g><g ><rect fill="#ffffff" stroke="#e5e7eb" rx="4" ry="4" x="186" y="66" width="80" height="28"></rect><text fill="#000" font-size="16" x="194" y="86" baseline-shift="baseline">🌰 栗子</text></g><g ><rect fill="#ffffff" stroke="#e5e7eb" rx="4" ry="4" x="281" y="66" width="80" height="28"></rect><text fill="#000" font-size="16" x="289" y="86" baseline-shift="baseline">🎍 莲子</text></g><g ><rect fill="#ffffff" stroke="#e5e7eb" rx="4" ry="4" x="91" y="109" width="80" height="28"></rect><text fill="#000" font-size="16" x="99" y="129" baseline-shift="baseline">🥚 鸡蛋</text></g><g ><rect fill="#ffffff" stroke="#e5e7eb" rx="4" ry="4" x="186" y="109" width="80" height="28"></rect><text fill="#000" font-size="16" x="194" y="129" baseline-shift="baseline">🐖 猪蹄</text></g><g ><rect fill="#ffffff" stroke="#e5e7eb" rx="4" ry="4" x="281" y="109" width="80" height="28"></rect><text fill="#000" font-size="16" x="289" y="129" baseline-shift="baseline">🌽 玉米</text></g><g ><rect fill="#ffffff" stroke="#e5e7eb" rx="4" ry="4" x="91" y="152" width="80" height="28"></rect><text fill="#000" font-size="16" x="99" y="172" baseline-shift="baseline">🌺 莲藕</text></g><g ><rect fill="#ffffff" stroke="#e5e7eb" rx="4" ry="4" x="186" y="152" width="80" height="28"></rect><text fill="#000" font-size="16" x="194" y="172" baseline-shift="baseline">🍠 红薯</text></g><g ><rect fill="#ffffff" stroke="#e5e7eb" rx="4" ry="4" x="281" y="152" width="80" height="28"></rect><text fill="#000" font-size="16" x="289" y="172" baseline-shift="baseline">🦆 烤鸭</text></g><g ><rect fill="#ffffff" stroke="#e5e7eb" rx="4" ry="4" x="91" y="195" width="80" height="28"></rect><text fill="#000" font-size="16" x="99" y="215" baseline-shift="baseline">🍷 红酒</text></g><g ><rect fill="#ffffff" stroke="#e5e7eb" rx="4" ry="4" x="186" y="195" width="80" height="28"></rect><text fill="#000" font-size="16" x="194" y="215" baseline-shift="baseline">🥥 椰子</text></g><g ><rect fill="#ffffff" stroke="#e5e7eb" rx="4" ry="4" x="281" y="195" width="80" height="28"></rect><text fill="#000" font-size="16" x="289" y="215" baseline-shift="baseline">🍋 柠檬</text></g><g ><rect fill="#ffffff" stroke="#e5e7eb" rx="4" ry="4" x="91" y="238" width="80" height="28"></rect><text fill="#000" font-size="16" x="99" y="258" baseline-shift="baseline">🌶️ 辣椒</text></g><g ><rect fill="#ffffff" stroke="#e5e7eb" rx="4" ry="4" x="186" y="238" width="80" height="28"></rect><text fill="#000" font-size="16" x="194" y="258" baseline-shift="baseline">🕊️ 燕窝</text></g><g ><rect fill="#ffffff" stroke="#e5e7eb" rx="4" ry="4" x="281" y="238" width="80" height="28"></rect><text fill="#000" font-size="16" x="289" y="258" baseline-shift="baseline">🍊 柚子</text></g><g ><rect fill="#ffffff" stroke="#e5e7eb" rx="4" ry="4" x="91" y="281" width="80" height="28"></rect><text fill="#000" font-size="16" x="99" y="301" baseline-shift="baseline">🌰 核桃</text></g><g ><rect fill="#ffffff" stroke="#e5e7eb" rx="4" ry="4" x="186" y="281" width="80" height="28"></rect><text fill="#000" font-size="16" x="194" y="301" baseline-shift="baseline">🍎 苹果</text></g><g ><rect fill="#ffffff" stroke="#e5e7eb" rx="4" ry="4" x="281" y="281" width="80" height="28"></rect><text fill="#000" font-size="16" x="289" y="301" baseline-shift="baseline">🍵 清茶</text></g><g ><rect fill="#ffffff" stroke="#e5e7eb" rx="4" ry="4" x="91" y="324" width="80" height="28"></rect><text fill="#000" font-size="16" x="99" y="344" baseline-shift="baseline">🥯 年糕</text></g><g ><rect fill="#ffffff" stroke="#e5e7eb" rx="4" ry="4" x="186" y="324" width="80" height="28"></rect><text fill="#000" font-size="16" x="194" y="344" baseline-shift="baseline">🍊 橘子</text></g><g ><rect fill="#ffffff" stroke="#e5e7eb" rx="4" ry="4" x="281" y="324" width="80" height="28"></rect><text fill="#000" font-size="16" x="289" y="344" baseline-shift="baseline">🍵 茶叶</text></g><g ><rect fill="#ffffff" stroke="#e5e7eb" rx="4" ry="4" x="91" y="367" width="80" height="28"></rect><text fill="#000" font-size="16" x="99" y="387" baseline-shift="baseline">🥂 香槟</text></g><g ><rect fill="#ffffff" stroke="#e5e7eb" rx="4" ry="4" x="186" y="367" width="80" height="28"></rect><text fill="#000" font-size="16" x="194" y="387" baseline-shift="baseline">🍬 喜糖</text></g><g ><rect fill="#ffffff" stroke="#e5e7eb" rx="4" ry="4" x="281" y="367" width="96" height="28"></rect><text fill="#000" font-size="16" x="289" y="387" baseline-shift="baseline">🍒 车厘子</text></g><g ><rect fill="#ffffff" stroke="#e5e7eb" rx="4" ry="4" x="91" y="410" width="96" height="28"></rect><text fill="#000" font-size="16" x="99" y="430" baseline-shift="baseline">🧉 马黛茶</text></g><g ><rect fill="#ffffff" stroke="#e5e7eb" rx="4" ry="4" x="202" y="410" width="96" height="28"></rect><text fill="#000" font-size="16" x="210" y="430" baseline-shift="baseline">🍀 龟苓膏</text></g><g ><rect fill="#ffffff" stroke="#e5e7eb" rx="4" ry="4" x="313" y="410" width="96" height="28"></rect><text fill="#000" font-size="16" x="321" y="430" baseline-shift="baseline">🥗 凉拌菜</text></g><g ><rect fill="#ffffff" stroke="#e5e7eb" rx="4" ry="4" x="91" y="453" width="96" height="28"></rect><text fill="#000" font-size="16" x="99" y="473" baseline-shift="baseline">🍷 葡萄酒</text></g><g ><rect fill="#ffffff" stroke="#e5e7eb" rx="4" ry="4" x="202" y="453" width="112" height="28"></rect><text fill="#000" font-size="16" x="210" y="473" baseline-shift="baseline">🚄 高铁套餐</text></g><text fill="#000" font-size="20" x="32" y="259.5" baseline-shift="baseline">宜</text><line x1="8" y1="498" x2="468" y2="498" stroke="#e5e7eb" stroke-width="1"></line><g ><rect fill="#ffffff" stroke="#e5e7eb" rx="4" ry="4" x="91" y="513" width="80" height="28"></rect><text fill="#000" font-size="16" x="99" y="533" baseline-shift="baseline">🌼 菊花</text></g><g ><rect fill="#ffffff" stroke="#e5e7eb" rx="4" ry="4" x="186" y="513" width="80" height="28"></rect><text fill="#000" font-size="16" x="194" y="533" baseline-shift="baseline">🌿 花茶</text></g><g ><rect fill="#ffffff" stroke="#e5e7eb" rx="4" ry="4" x="281" y="513" width="80" height="28"></rect><text fill="#000" font-size="16" x="289" y="533" baseline-shift="baseline">🌹 花瓣</text></g><g ><rect fill="#ffffff" stroke="#e5e7eb" rx="4" ry="4" x="91" y="556" width="80" height="28"></rect><text fill="#000" font-size="16" x="99" y="576" baseline-shift="baseline">🍄 香菇</text></g><g ><rect fill="#ffffff" stroke="#e5e7eb" rx="4" ry="4" x="186" y="556" width="80" height="28"></rect><text fill="#000" font-size="16" x="194" y="576" baseline-shift="baseline">🌲 松子</text></g><g ><rect fill="#ffffff" stroke="#e5e7eb" rx="4" ry="4" x="281" y="556" width="80" height="28"></rect><text fill="#000" font-size="16" x="289" y="576" baseline-shift="baseline">🦀 螃蟹</text></g><g ><rect fill="#ffffff" stroke="#e5e7eb" rx="4" ry="4" x="91" y="599" width="80" height="28"></rect><text fill="#000" font-size="16" x="99" y="619" baseline-shift="baseline">🍱 便当</text></g><g ><rect fill="#ffffff" stroke="#e5e7eb" rx="4" ry="4" x="186" y="599" width="80" height="28"></rect><text fill="#000" font-size="16" x="194" y="619" baseline-shift="baseline">🍚 米饭</text></g><g ><rect fill="#ffffff" stroke="#e5e7eb" rx="4" ry="4" x="281" y="599" width="80" height="28"></rect><text fill="#000" font-size="16" x="289" y="619" baseline-shift="baseline">🍜 面条</text></g><g ><rect fill="#ffffff" stroke="#e5e7eb" rx="4" ry="4" x="91" y="642" width="80" height="28"></rect><text fill="#000" font-size="16" x="99" y="662" baseline-shift="baseline">🥩 肉脯</text></g><g ><rect fill="#ffffff" stroke="#e5e7eb" rx="4" ry="4" x="186" y="642" width="80" height="28"></rect><text fill="#000" font-size="16" x="194" y="662" baseline-shift="baseline">🍎 石榴</text></g><g ><rect fill="#ffffff" stroke="#e5e7eb" rx="4" ry="4" x="281" y="642" width="80" height="28"></rect><text fill="#000" font-size="16" x="289" y="662" baseline-shift="baseline">🍒 李子</text></g><g ><rect fill="#ffffff" stroke="#e5e7eb" rx="4" ry="4" x="91" y="685" width="80" height="28"></rect><text fill="#000" font-size="16" x="99" y="705" baseline-shift="baseline">🍯 蜂蜜</text></g><g ><rect fill="#ffffff" stroke="#e5e7eb" rx="4" ry="4" x="186" y="685" width="80" height="28"></rect><text fill="#000" font-size="16" x="194" y="705" baseline-shift="baseline">🍈 龙眼</text></g><g ><rect fill="#ffffff" stroke="#e5e7eb" rx="4" ry="4" x="281" y="685" width="80" height="28"></rect><text fill="#000" font-size="16" x="289" y="705" baseline-shift="baseline">🧀 芝士</text></g><g ><rect fill="#ffffff" stroke="#e5e7eb" rx="4" ry="4" x="91" y="728" width="80" height="28"></rect><text fill="#000" font-size="16" x="99" y="748" baseline-shift="baseline">🥟 饺子</text></g><g ><rect fill="#ffffff" stroke="#e5e7eb" rx="4" ry="4" x="186" y="728" width="80" height="28"></rect><text fill="#000" font-size="16" x="194" y="748" baseline-shift="baseline">🦞 龙虾</text></g><g ><rect fill="#ffffff" stroke="#e5e7eb" rx="4" ry="4" x="281" y="728" width="80" height="28"></rect><text fill="#000" font-size="16" x="289" y="748" baseline-shift="baseline">🥩 牛肉</text></g><g ><rect fill="#ffffff" stroke="#e5e7eb" rx="4" ry="4" x="91" y="771" width="80" height="28"></rect><text fill="#000" font-size="16" x="99" y="791" baseline-shift="baseline">🐷 猪肉</text></g><g ><rect fill="#ffffff" stroke="#e5e7eb" rx="4" ry="4" x="186" y="771" width="96" height="28"></rect><text fill="#000" font-size="16" x="194" y="791" baseline-shift="baseline">🌷 茉莉花</text></g><g ><rect fill="#ffffff" stroke="#e5e7eb" rx="4" ry="4" x="297" y="771" width="96" height="28"></rect><text fill="#000" font-size="16" x="305" y="791" baseline-shift="baseline">🥯 白糖糕</text></g><g ><rect fill="#ffffff" stroke="#e5e7eb" rx="4" ry="4" x="91" y="814" width="96" height="28"></rect><text fill="#000" font-size="16" x="99" y="834" baseline-shift="baseline">🍪 芝麻饼</text></g><g ><rect fill="#ffffff" stroke="#e5e7eb" rx="4" ry="4" x="202" y="814" width="96" height="28"></rect><text fill="#000" font-size="16" x="210" y="834" baseline-shift="baseline">🍲 羊肉汤</text></g><g ><rect fill="#ffffff" stroke="#e5e7eb" rx="4" ry="4" x="313" y="814" width="96" height="28"></rect><text fill="#000" font-size="16" x="321" y="834" baseline-shift="baseline">🍜 小麦面</text></g><text fill="#000" font-size="20" x="32" y="685" baseline-shift="baseline">忌</text><line x1="76" y1="8" x2="76" y2="857.5" stroke="#e5e7eb" stroke-width="1"></line></svg>