<svg xmlns="http://www.w3.org/2000/svg" xmlns:xlink="http://www.w3.org/1999/xlink" width="476" height="392.5"><rect fill="#ffffff" stroke="#e5e7eb" rx="4" ry="4" x="8" y="8" width="460" height="376.5"></rect><g ><rect fill="#ffffff" stroke="#e5e7eb" rx="4" ry="4" x="91" y="23" width="58" height="28"></rect><text fill="#000" font-size="16" x="99" y="43" baseline-shift="baseline">🐟 鱼</text></g><g ><rect fill="#ffffff" stroke="#e5e7eb" rx="4" ry="4" x="164" y="23" width="58" height="28"></rect><text fill="#000" font-size="16" x="172" y="43" baseline-shift="baseline">🍺 酒</text></g><g ><rect fill="#ffffff" stroke="#e5e7eb" rx="4" ry="4" x="237" y="23" width="74" height="28"></rect><text fill="#000" font-size="16" x="245" y="43" baseline-shift="baseline">🍚 米饭</text></g><g ><rect fill="#ffffff" stroke="#e5e7eb" rx="4" ry="4" x="326" y="23" width="74" height="28"></rect><text fill="#000" font-size="16" x="334" y="43" baseline-shift="baseline">🥟 饺子</text></g><g ><rect fill="#ffffff" stroke="#e5e7eb" rx="4" ry="4" x="91" y="66" width="74" height="28"></rect><text fill="#000" font-size="16" x="99" y="86" baseline-shift="baseline">🥖 油条</text></g><g ><rect fill="#ffffff" stroke="#e5e7eb" rx="4" ry="4" x="180" y="66" width="74" height="28"></rect><text fill="#000" font-size="16" x="188" y="86" baseline-shift="baseline">🌾 五谷</text></g><g ><rect fill="#ffffff" stroke="#e5e7eb" rx="4" ry="4" x="269" y="66" width="74" height="28"></rect><text fill="#000" font-size="16" x="277" y="86" baseline-shift="baseline">🌰 栗子</text></g><g ><rect fill="#ffffff" stroke="#e5e7eb" rx="4" ry="4" x="358" y="66" width="74" height="28"></rect><text fill="#000" font-size="16" x="366" y="86" baseline-shift="baseline">🎍 莲子</text></g><g ><rect fill="#ffffff" stroke="#e5e7eb" rx="4" ry="4" x="91" y="109" width="74" height="28"></rect><text fill="#000" font-size="16" x="99" y="129" baseline-shift="baseline">🥚 鸡蛋</text></g><g ><rect fill="#ffffff" stroke="#e5e7eb" rx="4" ry="4" x="180" y="109" width="74" height="28"></rect><text fill="#000" font-size="16" x="188" y="129" baseline-shift="baseline">🐖 猪蹄</text></g><g ><rect fill="#ffffff" stroke="#e5e7eb" rx="4" ry="4" x="269" y="109" width="66" height="28"></rect><text fill="#000" font-size="16" x="277" y="129" baseline-shift="baseline">⚪ 汤圆</text></g><g ><rect fill="#ffffff" stroke="#e5e7eb" rx="4" ry="4" x="350" y="109" width="74" height="28"></rect><text fill="#000" font-size="16" x="358" y="129" baseline-shift="baseline">🌰 板栗</text></g><g ><rect fill="#ffffff" stroke="#e5e7eb" rx="4" ry="4" x="91" y="152" width="74" height="28"></rect><text fill="#000" font-size="16" x="99" y="172" baseline-shift="baseline">🍮 布丁</text></g><g ><rect fill="#ffffff" stroke="#e5e7eb" rx="4" ry="4" x="180" y="152" width="74" height="28"></rect><text fill="#000" font-size="16" x="188" y="172" baseline-shift="baseline">🦞 海鲜</text></g><g ><rect fill="#ffffff" stroke="#e5e7eb" rx="4" ry="4" x="269" y="152" width="74" height="28"></rect><text fill="#000" font-size="16" x="277" y="172" baseline-shift="baseline">🍷 红酒</text></g><g ><rect fill="#ffffff" stroke="#e5e7eb" rx="4" ry="4" x="358" y="152" width="74" height="28"></rect><text fill="#000" font-size="16" x="366" y="172" baseline-shift="baseline">🍬 喜糖</text></g><g ><rect fill="#ffffff" stroke="#e5e7eb" rx="4" ry="4" x="91" y="195" width="90" height="28"></rect><text fill="#000" font-size="16" x="99" y="215" baseline-shift="baseline">🍦 冰激凌</text></g><g ><rect fill="#ffffff" stroke="#e5e7eb" rx="4" ry="4" x="196" y="195" width="90" height="28"></rect><text fill="#000" font-size="16" x="204" y="215" baseline-shift="baseline">🍹 鸡尾酒</text></g><text fill="#000" font-size="20" x="30" y="130.5" baseline-shift="baseline">宜</text><line x1="8" y1="240" x2="468" y2="240" stroke="#e5e7eb" stroke-width="1"></line><g ><rect fill="#ffffff" stroke="#e5e7eb" rx="4" ry="4" x="91" y="255" width="74" height="28"></rect><text fill="#000" font-size="16" x="99" y="275" baseline-shift="baseline">🍠 芋头</text></g><g ><rect fill="#ffffff" stroke="#e5e7eb" rx="4" ry="4" x="180" y="255" width="74" height="28"></rect><text fill="#000" font-size="16" x="188" y="275" baseline-shift="baseline">🥯 白果</text></g><g ><rect fill="#ffffff" stroke="#e5e7eb" rx="4" ry="4" x="269" y="255" width="74" height="28"></rect><text fill="#000" font-size="16" x="277" y="275" baseline-shift="baseline">🍂 香料</text></g><g ><rect fill="#ffffff" stroke="#e5e7eb" rx="4" ry="4" x="358" y="255" width="74" height="28"></rect><text fill="#000" font-size="16" x="366" y="275" baseline-shift="baseline">🌰 松子</text></g><g ><rect fill="#ffffff" stroke="#e5e7eb" rx="4" ry="4" x="91" y="298" width="74" height="28"></rect><text fill="#000" font-size="16" x="99" y="318" baseline-shift="baseline">🌼 菊花</text></g><g ><rect fill="#ffffff" stroke="#e5e7eb" rx="4" ry="4" x="180" y="298" width="74" height="28"></rect><text fill="#000" font-size="16" x="188" y="318" baseline-shift="baseline">🍺 啤酒</text></g><g ><rect fill="#ffffff" stroke="#e5e7eb" rx="4" ry="4" x="269" y="298" width="74" height="28"></rect><text fill="#000" font-size="16" x="277" y="318" baseline-shift="baseline">🧀 奶酪</text></g><g ><rect fill="#ffffff" stroke="#e5e7eb" rx="4" ry="4" x="358" y="298" width="74" height="28"></rect><text fill="#000" font-size="16" x="366" y="318" baseline-shift="baseline">🍪 曲奇</text></g><g ><rect fill="#ffffff" stroke="#e5e7eb" rx="4" ry="4" x="91" y="341" width="74" height="28"></rect><text fill="#000" font-size="16" x="99" y="361" baseline-shift="baseline">🍪 饼干</text></g><g ><rect fill="#ffffff" stroke="#e5e7eb" rx="4" ry="4" x="180" y="341" width="90" height="28"></rect><text fill="#000" font-size="16" x="188" y="361" baseline-shift="baseline">🍩 甜甜圈</text></g><text fill="#000" font-size="20" x="30" y="319.5" baseline-shift="baseline">忌</text><line x1="76" y1="8" x2="76" y2="384.5" stroke="#e5e7eb" stroke-width="1"></line></svg>