<svg xmlns="http://www.w3.org/2000/svg" xmlns:xlink="http://www.w3.org/1999/xlink" width="476" height="994.5"><style >text {
      font-family: Consolas, "Lucida Console", Monaco, "DejaVu Sans Mono", "Bitstream Vera Sans Mono", monospace;
      font-variant-numeric: tabular-nums;
    }</style><rect fill="#ffffff" stroke="#e5e7eb" rx="4" ry="4" x="8" y="8" width="460" height="978.5"></rect><g ><rect fill="#ffffff" stroke="#e5e7eb" rx="4" ry="4" x="91" y="23" width="64" height="28"></rect><text fill="#000" font-size="16" x="99" y="43" baseline-shift="baseline">🐟 鱼</text></g><g ><rect fill="#ffffff" stroke="#e5e7eb" rx="4" ry="4" x="170" y="23" width="64" height="28"></rect><text fill="#000" font-size="16" x="178" y="43" baseline-shift="baseline">🥣 粥</text></g><g ><rect fill="#ffffff" stroke="#e5e7eb" rx="4" ry="4" x="249" y="23" width="80" height="28"></rect><text fill="#000" font-size="16" x="257" y="43" baseline-shift="baseline">🥬 菜心</text></g><g ><rect fill="#ffffff" stroke="#e5e7eb" rx="4" ry="4" x="344" y="23" width="80" height="28"></rect><text fill="#000" font-size="16" x="352" y="43" baseline-shift="baseline">🍆 茄子</text></g><g ><rect fill="#ffffff" stroke="#e5e7eb" rx="4" ry="4" x="91" y="66" width="80" height="28"></rect><text fill="#000" font-size="16" x="99" y="86" baseline-shift="baseline">🥒 黄瓜</text></g><g ><rect fill="#ffffff" stroke="#e5e7eb" rx="4" ry="4" x="186" y="66" width="80" height="28"></rect><text fill="#000" font-size="16" x="194" y="86" baseline-shift="baseline">🐟 鱼翅</text></g><g ><rect fill="#ffffff" stroke="#e5e7eb" rx="4" ry="4" x="281" y="66" width="80" height="28"></rect><text fill="#000" font-size="16" x="289" y="86" baseline-shift="baseline">🦪 鲍鱼</text></g><g ><rect fill="#ffffff" stroke="#e5e7eb" rx="4" ry="4" x="91" y="109" width="80" height="28"></rect><text fill="#000" font-size="16" x="99" y="129" baseline-shift="baseline">🍺 啤酒</text></g><g ><rect fill="#ffffff" stroke="#e5e7eb" rx="4" ry="4" x="186" y="109" width="80" height="28"></rect><text fill="#000" font-size="16" x="194" y="129" baseline-shift="baseline">🧀 奶酪</text></g><g ><rect fill="#ffffff" stroke="#e5e7eb" rx="4" ry="4" x="281" y="109" width="80" height="28"></rect><text fill="#000" font-size="16" x="289" y="129" baseline-shift="baseline">🍪 曲奇</text></g><g ><rect fill="#ffffff" stroke="#e5e7eb" rx="4" ry="4" x="91" y="152" width="80" height="28"></rect><text fill="#000" font-size="16" x="99" y="172" baseline-shift="baseline">🍪 饼干</text></g><g ><rect fill="#ffffff" stroke="#e5e7eb" rx="4" ry="4" x="186" y="152" width="80" height="28"></rect><text fill="#000" font-size="16" x="194" y="172" baseline-shift="baseline">🍄 香菇</text></g><g ><rect fill="#ffffff" stroke="#e5e7eb" rx="4" ry="4" x="281" y="152" width="80" height="28"></rect><text fill="#000" font-size="16" x="289" y="172" baseline-shift="baseline">🌲 松子</text></g><g ><rect fill="#ffffff" stroke="#e5e7eb" rx="4" ry="4" x="91" y="195" width="80" height="28"></rect><text fill="#000" font-size="16" x="99" y="215" baseline-shift="baseline">🌰 栗子</text></g><g ><rect fill="#ffffff" stroke="#e5e7eb" rx="4" ry="4" x="186" y="195" width="80" height="28"></rect><text fill="#000" font-size="16" x="194" y="215" baseline-shift="baseline">🎍 莲子</text></g><g ><rect fill="#ffffff" stroke="#e5e7eb" rx="4" ry="4" x="281" y="195" width="80" height="28"></rect><text fill="#000" font-size="16" x="289" y="215" baseline-shift="baseline">🥚 鸡蛋</text></g><g ><rect fill="#ffffff" stroke="#e5e7eb" rx="4" ry="4" x="91" y="238" width="80" height="28"></rect><text fill="#000" font-size="16" x="99" y="258" baseline-shift="baseline">🐖 猪蹄</text></g><g ><rect fill="#ffffff" stroke="#e5e7eb" rx="4" ry="4" x="186" y="238" width="80" height="28"></rect><text fill="#000" font-size="16" x="194" y="258" baseline-shift="baseline">🍅 番茄</text></g><g ><rect fill="#ffffff" stroke="#e5e7eb" rx="4" ry="4" x="281" y="238" width="80" height="28"></rect><text fill="#000" font-size="16" x="289" y="258" baseline-shift="baseline">🍓 草莓</text></g><g ><rect fill="#ffffff" stroke="#e5e7eb" rx="4" ry="4" x="91" y="281" width="80" height="28"></rect><text fill="#000" font-size="16" x="99" y="301" baseline-shift="baseline">🍉 西瓜</text></g><g ><rect fill="#ffffff" stroke="#e5e7eb" rx="4" ry="4" x="186" y="281" width="80" height="28"></rect><text fill="#000" font-size="16" x="194" y="301" baseline-shift="baseline">🧀 芝士</text></g><g ><rect fill="#ffffff" stroke="#e5e7eb" rx="4" ry="4" x="281" y="281" width="80" height="28"></rect><text fill="#000" font-size="16" x="289" y="301" baseline-shift="baseline">🦞 龙虾</text></g><g ><rect fill="#ffffff" stroke="#e5e7eb" rx="4" ry="4" x="91" y="324" width="80" height="28"></rect><text fill="#000" font-size="16" x="99" y="344" baseline-shift="baseline">🥩 牛肉</text></g><g ><rect fill="#ffffff" stroke="#e5e7eb" rx="4" ry="4" x="186" y="324" width="80" height="28"></rect><text fill="#000" font-size="16" x="194" y="344" baseline-shift="baseline">🌽 玉米</text></g><g ><rect fill="#ffffff" stroke="#e5e7eb" rx="4" ry="4" x="281" y="324" width="80" height="28"></rect><text fill="#000" font-size="16" x="289" y="344" baseline-shift="baseline">🌺 莲藕</text></g><g ><rect fill="#ffffff" stroke="#e5e7eb" rx="4" ry="4" x="91" y="367" width="80" height="28"></rect><text fill="#000" font-size="16" x="99" y="387" baseline-shift="baseline">🍠 红薯</text></g><g ><rect fill="#ffffff" stroke="#e5e7eb" rx="4" ry="4" x="186" y="367" width="80" height="28"></rect><text fill="#000" font-size="16" x="194" y="387" baseline-shift="baseline">🍱 便当</text></g><g ><rect fill="#ffffff" stroke="#e5e7eb" rx="4" ry="4" x="281" y="367" width="80" height="28"></rect><text fill="#000" font-size="16" x="289" y="387" baseline-shift="baseline">🍜 面条</text></g><g ><rect fill="#ffffff" stroke="#e5e7eb" rx="4" ry="4" x="91" y="410" width="80" height="28"></rect><text fill="#000" font-size="16" x="99" y="430" baseline-shift="baseline">🥩 肉脯</text></g><g ><rect fill="#ffffff" stroke="#e5e7eb" rx="4" ry="4" x="186" y="410" width="80" height="28"></rect><text fill="#000" font-size="16" x="194" y="430" baseline-shift="baseline">🥗 沙拉</text></g><g ><rect fill="#ffffff" stroke="#e5e7eb" rx="4" ry="4" x="281" y="410" width="80" height="28"></rect><text fill="#000" font-size="16" x="289" y="430" baseline-shift="baseline">🍲 砂锅</text></g><g ><rect fill="#ffffff" stroke="#e5e7eb" rx="4" ry="4" x="91" y="453" width="80" height="28"></rect><text fill="#000" font-size="16" x="99" y="473" baseline-shift="baseline">🍜 米粉</text></g><g ><rect fill="#ffffff" stroke="#e5e7eb" rx="4" ry="4" x="186" y="453" width="80" height="28"></rect><text fill="#000" font-size="16" x="194" y="473" baseline-shift="baseline">🥔 土豆</text></g><g ><rect fill="#ffffff" stroke="#e5e7eb" rx="4" ry="4" x="281" y="453" width="80" height="28"></rect><text fill="#000" font-size="16" x="289" y="473" baseline-shift="baseline">🦆 烤鸭</text></g><g ><rect fill="#ffffff" stroke="#e5e7eb" rx="4" ry="4" x="91" y="496" width="80" height="28"></rect><text fill="#000" font-size="16" x="99" y="516" baseline-shift="baseline">🍷 红酒</text></g><g ><rect fill="#ffffff" stroke="#e5e7eb" rx="4" ry="4" x="186" y="496" width="80" height="28"></rect><text fill="#000" font-size="16" x="194" y="516" baseline-shift="baseline">🥥 椰子</text></g><g ><rect fill="#ffffff" stroke="#e5e7eb" rx="4" ry="4" x="281" y="496" width="80" height="28"></rect><text fill="#000" font-size="16" x="289" y="516" baseline-shift="baseline">🍖 排骨</text></g><g ><rect fill="#ffffff" stroke="#e5e7eb" rx="4" ry="4" x="91" y="539" width="80" height="28"></rect><text fill="#000" font-size="16" x="99" y="559" baseline-shift="baseline">🍍 菠萝</text></g><g ><rect fill="#ffffff" stroke="#e5e7eb" rx="4" ry="4" x="186" y="539" width="80" height="28"></rect><text fill="#000" font-size="16" x="194" y="559" baseline-shift="baseline">🥜 花生</text></g><g ><rect fill="#ffffff" stroke="#e5e7eb" rx="4" ry="4" x="281" y="539" width="80" height="28"></rect><text fill="#000" font-size="16" x="289" y="559" baseline-shift="baseline">🍇 葡萄</text></g><g ><rect fill="#ffffff" stroke="#e5e7eb" rx="4" ry="4" x="91" y="582" width="80" height="28"></rect><text fill="#000" font-size="16" x="99" y="602" baseline-shift="baseline">🥂 香槟</text></g><g ><rect fill="#ffffff" stroke="#e5e7eb" rx="4" ry="4" x="186" y="582" width="80" height="28"></rect><text fill="#000" font-size="16" x="194" y="602" baseline-shift="baseline">🦀 螃蟹</text></g><g ><rect fill="#ffffff" stroke="#e5e7eb" rx="4" ry="4" x="281" y="582" width="80" height="28"></rect><text fill="#000" font-size="16" x="289" y="602" baseline-shift="baseline">🍬 喜糖</text></g><g ><rect fill="#ffffff" stroke="#e5e7eb" rx="4" ry="4" x="91" y="625" width="96" height="28"></rect><text fill="#000" font-size="16" x="99" y="645" baseline-shift="baseline">🐂 金钱肚</text></g><g ><rect fill="#ffffff" stroke="#e5e7eb" rx="4" ry="4" x="202" y="625" width="96" height="28"></rect><text fill="#000" font-size="16" x="210" y="645" baseline-shift="baseline">🍩 甜甜圈</text></g><g ><rect fill="#ffffff" stroke="#e5e7eb" rx="4" ry="4" x="313" y="625" width="96" height="28"></rect><text fill="#000" font-size="16" x="321" y="645" baseline-shift="baseline">🥯 白糖糕</text></g><g ><rect fill="#ffffff" stroke="#e5e7eb" rx="4" ry="4" x="91" y="668" width="96" height="28"></rect><text fill="#000" font-size="16" x="99" y="688" baseline-shift="baseline">🍪 芝麻饼</text></g><g ><rect fill="#ffffff" stroke="#e5e7eb" rx="4" ry="4" x="202" y="668" width="96" height="28"></rect><text fill="#000" font-size="16" x="210" y="688" baseline-shift="baseline">🥦 西兰花</text></g><g ><rect fill="#ffffff" stroke="#e5e7eb" rx="4" ry="4" x="313" y="668" width="96" height="28"></rect><text fill="#000" font-size="16" x="321" y="688" baseline-shift="baseline">🥕 胡萝卜</text></g><g ><rect fill="#ffffff" stroke="#e5e7eb" rx="4" ry="4" x="91" y="711" width="96" height="28"></rect><text fill="#000" font-size="16" x="99" y="731" baseline-shift="baseline">🍲 羊肉汤</text></g><g ><rect fill="#ffffff" stroke="#e5e7eb" rx="4" ry="4" x="202" y="711" width="96" height="28"></rect><text fill="#000" font-size="16" x="210" y="731" baseline-shift="baseline">🍒 车厘子</text></g><g ><rect fill="#ffffff" stroke="#e5e7eb" rx="4" ry="4" x="313" y="711" width="96" height="28"></rect><text fill="#000" font-size="16" x="321" y="731" baseline-shift="baseline">🥗 凉拌菜</text></g><g ><rect fill="#ffffff" stroke="#e5e7eb" rx="4" ry="4" x="91" y="754" width="96" height="28"></rect><text fill="#000" font-size="16" x="99" y="774" baseline-shift="baseline">🍷 葡萄酒</text></g><g ><rect fill="#ffffff" stroke="#e5e7eb" rx="4" ry="4" x="202" y="754" width="112" height="28"></rect><text fill="#000" font-size="16" x="210" y="774" baseline-shift="baseline">🍝 意大利面</text></g><g ><rect fill="#ffffff" stroke="#e5e7eb" rx="4" ry="4" x="329" y="754" width="112" height="28"></rect><text fill="#000" font-size="16" x="337" y="774" baseline-shift="baseline">🚄 高铁套餐</text></g><text fill="#000" font-size="20" x="32" y="410" baseline-shift="baseline">宜</text><line x1="8" y1="799" x2="468" y2="799" stroke="#e5e7eb" stroke-width="1"></line><g ><rect fill="#ffffff" stroke="#e5e7eb" rx="4" ry="4" x="91" y="814" width="80" height="28"></rect><text fill="#000" font-size="16" x="99" y="834" baseline-shift="baseline">🥟 饺子</text></g><g ><rect fill="#ffffff" stroke="#e5e7eb" rx="4" ry="4" x="186" y="814" width="80" height="28"></rect><text fill="#000" font-size="16" x="194" y="834" baseline-shift="baseline">🥖 油条</text></g><g ><rect fill="#ffffff" stroke="#e5e7eb" rx="4" ry="4" x="281" y="814" width="80" height="28"></rect><text fill="#000" font-size="16" x="289" y="834" baseline-shift="baseline">🌾 五谷</text></g><g ><rect fill="#ffffff" stroke="#e5e7eb" rx="4" ry="4" x="91" y="857" width="80" height="28"></rect><text fill="#000" font-size="16" x="99" y="877" baseline-shift="baseline">🍊 橘子</text></g><g ><rect fill="#ffffff" stroke="#e5e7eb" rx="4" ry="4" x="186" y="857" width="80" height="28"></rect><text fill="#000" font-size="16" x="194" y="877" baseline-shift="baseline">🍵 茶叶</text></g><g ><rect fill="#ffffff" stroke="#e5e7eb" rx="4" ry="4" x="281" y="857" width="80" height="28"></rect><text fill="#000" font-size="16" x="289" y="877" baseline-shift="baseline">🍚 米饭</text></g><g ><rect fill="#ffffff" stroke="#e5e7eb" rx="4" ry="4" x="91" y="900" width="80" height="28"></rect><text fill="#000" font-size="16" x="99" y="920" baseline-shift="baseline">🐖 猪肉</text></g><g ><rect fill="#ffffff" stroke="#e5e7eb" rx="4" ry="4" x="186" y="900" width="80" height="28"></rect><text fill="#000" font-size="16" x="194" y="920" baseline-shift="baseline">🍊 柚子</text></g><g ><rect fill="#ffffff" stroke="#e5e7eb" rx="4" ry="4" x="281" y="900" width="80" height="28"></rect><text fill="#000" font-size="16" x="289" y="920" baseline-shift="baseline">🥯 年糕</text></g><g ><rect fill="#ffffff" stroke="#e5e7eb" rx="4" ry="4" x="91" y="943" width="80" height="28"></rect><text fill="#000" font-size="16" x="99" y="963" baseline-shift="baseline">🌰 核桃</text></g><g ><rect fill="#ffffff" stroke="#e5e7eb" rx="4" ry="4" x="186" y="943" width="80" height="28"></rect><text fill="#000" font-size="16" x="194" y="963" baseline-shift="baseline">🍎 苹果</text></g><g ><rect fill="#ffffff" stroke="#e5e7eb" rx="4" ry="4" x="281" y="943" width="80" height="28"></rect><text fill="#000" font-size="16" x="289" y="963" baseline-shift="baseline">🍵 清茶</text></g><text fill="#000" font-size="20" x="32" y="900" baseline-shift="baseline">忌</text><line x1="76" y1="8" x2="76" y2="986.5" stroke="#e5e7eb" stroke-width="1"></line></svg>