<svg xmlns="http://www.w3.org/2000/svg" xmlns:xlink="http://www.w3.org/1999/xlink" width="476" height="1166.5"><style >text {
      font-family: Consolas, "Lucida Console", Monaco, "DejaVu Sans Mono", "Bitstream Vera Sans Mono", monospace;
      font-variant-numeric: tabular-nums;
    }</style><rect fill="#ffffff" stroke="#e5e7eb" rx="4" ry="4" x="8" y="8" width="460" height="1150.5"></rect><g ><rect fill="#ffffff" stroke="#e5e7eb" rx="4" ry="4" x="91" y="23" width="64" height="28"></rect><text fill="#000" font-size="16" x="99" y="43" baseline-shift="baseline">🐟 鱼</text></g><g ><rect fill="#ffffff" stroke="#e5e7eb" rx="4" ry="4" x="170" y="23" width="64" height="28"></rect><text fill="#000" font-size="16" x="178" y="43" baseline-shift="baseline">🥣 粥</text></g><g ><rect fill="#ffffff" stroke="#e5e7eb" rx="4" ry="4" x="249" y="23" width="64" height="28"></rect><text fill="#000" font-size="16" x="257" y="43" baseline-shift="baseline">🍤 虾</text></g><g ><rect fill="#ffffff" stroke="#e5e7eb" rx="4" ry="4" x="328" y="23" width="80" height="28"></rect><text fill="#000" font-size="16" x="336" y="43" baseline-shift="baseline">🍠 芋头</text></g><g ><rect fill="#ffffff" stroke="#e5e7eb" rx="4" ry="4" x="91" y="66" width="80" height="28"></rect><text fill="#000" font-size="16" x="99" y="86" baseline-shift="baseline">🌼 菊花</text></g><g ><rect fill="#ffffff" stroke="#e5e7eb" rx="4" ry="4" x="186" y="66" width="80" height="28"></rect><text fill="#000" font-size="16" x="194" y="86" baseline-shift="baseline">🌿 花茶</text></g><g ><rect fill="#ffffff" stroke="#e5e7eb" rx="4" ry="4" x="281" y="66" width="80" height="28"></rect><text fill="#000" font-size="16" x="289" y="86" baseline-shift="baseline">🌹 花瓣</text></g><g ><rect fill="#ffffff" stroke="#e5e7eb" rx="4" ry="4" x="91" y="109" width="80" height="28"></rect><text fill="#000" font-size="16" x="99" y="129" baseline-shift="baseline">🎍 芦笋</text></g><g ><rect fill="#ffffff" stroke="#e5e7eb" rx="4" ry="4" x="186" y="109" width="80" height="28"></rect><text fill="#000" font-size="16" x="194" y="129" baseline-shift="baseline">🍎 石榴</text></g><g ><rect fill="#ffffff" stroke="#e5e7eb" rx="4" ry="4" x="281" y="109" width="80" height="28"></rect><text fill="#000" font-size="16" x="289" y="129" baseline-shift="baseline">🍒 李子</text></g><g ><rect fill="#ffffff" stroke="#e5e7eb" rx="4" ry="4" x="91" y="152" width="80" height="28"></rect><text fill="#000" font-size="16" x="99" y="172" baseline-shift="baseline">🍈 龙眼</text></g><g ><rect fill="#ffffff" stroke="#e5e7eb" rx="4" ry="4" x="186" y="152" width="80" height="28"></rect><text fill="#000" font-size="16" x="194" y="172" baseline-shift="baseline">🌰 栗子</text></g><g ><rect fill="#ffffff" stroke="#e5e7eb" rx="4" ry="4" x="281" y="152" width="80" height="28"></rect><text fill="#000" font-size="16" x="289" y="172" baseline-shift="baseline">🎍 莲子</text></g><g ><rect fill="#ffffff" stroke="#e5e7eb" rx="4" ry="4" x="91" y="195" width="80" height="28"></rect><text fill="#000" font-size="16" x="99" y="215" baseline-shift="baseline">🐖 猪蹄</text></g><g ><rect fill="#ffffff" stroke="#e5e7eb" rx="4" ry="4" x="186" y="195" width="80" height="28"></rect><text fill="#000" font-size="16" x="194" y="215" baseline-shift="baseline">🍄 香菇</text></g><g ><rect fill="#ffffff" stroke="#e5e7eb" rx="4" ry="4" x="281" y="195" width="80" height="28"></rect><text fill="#000" font-size="16" x="289" y="215" baseline-shift="baseline">🌲 松子</text></g><g ><rect fill="#ffffff" stroke="#e5e7eb" rx="4" ry="4" x="91" y="238" width="80" height="28"></rect><text fill="#000" font-size="16" x="99" y="258" baseline-shift="baseline">🥨 麻花</text></g><g ><rect fill="#ffffff" stroke="#e5e7eb" rx="4" ry="4" x="186" y="238" width="80" height="28"></rect><text fill="#000" font-size="16" x="194" y="258" baseline-shift="baseline">🍚 糯米</text></g><g ><rect fill="#ffffff" stroke="#e5e7eb" rx="4" ry="4" x="281" y="238" width="80" height="28"></rect><text fill="#000" font-size="16" x="289" y="258" baseline-shift="baseline">🍇 葡萄</text></g><g ><rect fill="#ffffff" stroke="#e5e7eb" rx="4" ry="4" x="91" y="281" width="80" height="28"></rect><text fill="#000" font-size="16" x="99" y="301" baseline-shift="baseline">🥜 瓜子</text></g><g ><rect fill="#ffffff" stroke="#e5e7eb" rx="4" ry="4" x="186" y="281" width="80" height="28"></rect><text fill="#000" font-size="16" x="194" y="301" baseline-shift="baseline">🌺 莲藕</text></g><g ><rect fill="#ffffff" stroke="#e5e7eb" rx="4" ry="4" x="281" y="281" width="80" height="28"></rect><text fill="#000" font-size="16" x="289" y="301" baseline-shift="baseline">🍠 红薯</text></g><g ><rect fill="#ffffff" stroke="#e5e7eb" rx="4" ry="4" x="91" y="324" width="80" height="28"></rect><text fill="#000" font-size="16" x="99" y="344" baseline-shift="baseline">🍱 便当</text></g><g ><rect fill="#ffffff" stroke="#e5e7eb" rx="4" ry="4" x="186" y="324" width="80" height="28"></rect><text fill="#000" font-size="16" x="194" y="344" baseline-shift="baseline">🍜 面条</text></g><g ><rect fill="#ffffff" stroke="#e5e7eb" rx="4" ry="4" x="281" y="324" width="80" height="28"></rect><text fill="#000" font-size="16" x="289" y="344" baseline-shift="baseline">🥩 肉脯</text></g><g ><rect fill="#ffffff" stroke="#e5e7eb" rx="4" ry="4" x="91" y="367" width="80" height="28"></rect><text fill="#000" font-size="16" x="99" y="387" baseline-shift="baseline">🥗 沙拉</text></g><g ><rect fill="#ffffff" stroke="#e5e7eb" rx="4" ry="4" x="186" y="367" width="80" height="28"></rect><text fill="#000" font-size="16" x="194" y="387" baseline-shift="baseline">🍲 砂锅</text></g><g ><rect fill="#ffffff" stroke="#e5e7eb" rx="4" ry="4" x="281" y="367" width="80" height="28"></rect><text fill="#000" font-size="16" x="289" y="387" baseline-shift="baseline">🍜 米粉</text></g><g ><rect fill="#ffffff" stroke="#e5e7eb" rx="4" ry="4" x="91" y="410" width="80" height="28"></rect><text fill="#000" font-size="16" x="99" y="430" baseline-shift="baseline">🥔 土豆</text></g><g ><rect fill="#ffffff" stroke="#e5e7eb" rx="4" ry="4" x="186" y="410" width="80" height="28"></rect><text fill="#000" font-size="16" x="194" y="430" baseline-shift="baseline">🐔 鸡肉</text></g><g ><rect fill="#ffffff" stroke="#e5e7eb" rx="4" ry="4" x="281" y="410" width="80" height="28"></rect><text fill="#000" font-size="16" x="289" y="430" baseline-shift="baseline">🌶️ 辣椒</text></g><g ><rect fill="#ffffff" stroke="#e5e7eb" rx="4" ry="4" x="91" y="453" width="80" height="28"></rect><text fill="#000" font-size="16" x="99" y="473" baseline-shift="baseline">🌿 香草</text></g><g ><rect fill="#ffffff" stroke="#e5e7eb" rx="4" ry="4" x="186" y="453" width="80" height="28"></rect><text fill="#000" font-size="16" x="194" y="473" baseline-shift="baseline">🐚 蛤蜊</text></g><g ><rect fill="#ffffff" stroke="#e5e7eb" rx="4" ry="4" x="281" y="453" width="80" height="28"></rect><text fill="#000" font-size="16" x="289" y="473" baseline-shift="baseline">🥯 年糕</text></g><g ><rect fill="#ffffff" stroke="#e5e7eb" rx="4" ry="4" x="91" y="496" width="80" height="28"></rect><text fill="#000" font-size="16" x="99" y="516" baseline-shift="baseline">🍊 橘子</text></g><g ><rect fill="#ffffff" stroke="#e5e7eb" rx="4" ry="4" x="186" y="496" width="80" height="28"></rect><text fill="#000" font-size="16" x="194" y="516" baseline-shift="baseline">🍵 茶叶</text></g><g ><rect fill="#ffffff" stroke="#e5e7eb" rx="4" ry="4" x="281" y="496" width="96" height="28"></rect><text fill="#000" font-size="16" x="289" y="516" baseline-shift="baseline">🌷 茉莉花</text></g><g ><rect fill="#ffffff" stroke="#e5e7eb" rx="4" ry="4" x="91" y="539" width="96" height="28"></rect><text fill="#000" font-size="16" x="99" y="559" baseline-shift="baseline">🐟 鱼子酱</text></g><g ><rect fill="#ffffff" stroke="#e5e7eb" rx="4" ry="4" x="202" y="539" width="96" height="28"></rect><text fill="#000" font-size="16" x="210" y="559" baseline-shift="baseline">🍜 小麦面</text></g><g ><rect fill="#ffffff" stroke="#e5e7eb" rx="4" ry="4" x="313" y="539" width="96" height="28"></rect><text fill="#000" font-size="16" x="321" y="559" baseline-shift="baseline">🥯 白糖糕</text></g><g ><rect fill="#ffffff" stroke="#e5e7eb" rx="4" ry="4" x="91" y="582" width="96" height="28"></rect><text fill="#000" font-size="16" x="99" y="602" baseline-shift="baseline">🍪 芝麻饼</text></g><g ><rect fill="#ffffff" stroke="#e5e7eb" rx="4" ry="4" x="202" y="582" width="96" height="28"></rect><text fill="#000" font-size="16" x="210" y="602" baseline-shift="baseline">🥮 蛋黄酥</text></g><g ><rect fill="#ffffff" stroke="#e5e7eb" rx="4" ry="4" x="313" y="582" width="96" height="28"></rect><text fill="#000" font-size="16" x="321" y="602" baseline-shift="baseline">🍲 羊肉汤</text></g><g ><rect fill="#ffffff" stroke="#e5e7eb" rx="4" ry="4" x="91" y="625" width="112" height="28"></rect><text fill="#000" font-size="16" x="99" y="645" baseline-shift="baseline">🍝 意大利面</text></g><text fill="#000" font-size="20" x="32" y="345.5" baseline-shift="baseline">宜</text><line x1="8" y1="670" x2="468" y2="670" stroke="#e5e7eb" stroke-width="1"></line><g ><rect fill="#ffffff" stroke="#e5e7eb" rx="4" ry="4" x="91" y="685" width="80" height="28"></rect><text fill="#000" font-size="16" x="99" y="705" baseline-shift="baseline">🥟 水饺</text></g><g ><rect fill="#ffffff" stroke="#e5e7eb" rx="4" ry="4" x="186" y="685" width="80" height="28"></rect><text fill="#000" font-size="16" x="194" y="705" baseline-shift="baseline">🥜 花生</text></g><g ><rect fill="#ffffff" stroke="#e5e7eb" rx="4" ry="4" x="281" y="685" width="80" height="28"></rect><text fill="#000" font-size="16" x="289" y="705" baseline-shift="baseline">🍯 蜂蜜</text></g><g ><rect fill="#ffffff" stroke="#e5e7eb" rx="4" ry="4" x="91" y="728" width="80" height="28"></rect><text fill="#000" font-size="16" x="99" y="748" baseline-shift="baseline">🥚 鸡蛋</text></g><g ><rect fill="#ffffff" stroke="#e5e7eb" rx="4" ry="4" x="186" y="728" width="80" height="28"></rect><text fill="#000" font-size="16" x="194" y="748" baseline-shift="baseline">🌽 玉米</text></g><g ><rect fill="#ffffff" stroke="#e5e7eb" rx="4" ry="4" x="281" y="728" width="80" height="28"></rect><text fill="#000" font-size="16" x="289" y="748" baseline-shift="baseline">🥬 菜心</text></g><g ><rect fill="#ffffff" stroke="#e5e7eb" rx="4" ry="4" x="91" y="771" width="80" height="28"></rect><text fill="#000" font-size="16" x="99" y="791" baseline-shift="baseline">🥒 黄瓜</text></g><g ><rect fill="#ffffff" stroke="#e5e7eb" rx="4" ry="4" x="186" y="771" width="80" height="28"></rect><text fill="#000" font-size="16" x="194" y="791" baseline-shift="baseline">🍆 茄子</text></g><g ><rect fill="#ffffff" stroke="#e5e7eb" rx="4" ry="4" x="281" y="771" width="80" height="28"></rect><text fill="#000" font-size="16" x="289" y="791" baseline-shift="baseline">🍅 番茄</text></g><g ><rect fill="#ffffff" stroke="#e5e7eb" rx="4" ry="4" x="91" y="814" width="80" height="28"></rect><text fill="#000" font-size="16" x="99" y="834" baseline-shift="baseline">🍓 草莓</text></g><g ><rect fill="#ffffff" stroke="#e5e7eb" rx="4" ry="4" x="186" y="814" width="80" height="28"></rect><text fill="#000" font-size="16" x="194" y="834" baseline-shift="baseline">🍉 西瓜</text></g><g ><rect fill="#ffffff" stroke="#e5e7eb" rx="4" ry="4" x="281" y="814" width="80" height="28"></rect><text fill="#000" font-size="16" x="289" y="834" baseline-shift="baseline">🧀 芝士</text></g><g ><rect fill="#ffffff" stroke="#e5e7eb" rx="4" ry="4" x="91" y="857" width="80" height="28"></rect><text fill="#000" font-size="16" x="99" y="877" baseline-shift="baseline">🦞 龙虾</text></g><g ><rect fill="#ffffff" stroke="#e5e7eb" rx="4" ry="4" x="186" y="857" width="80" height="28"></rect><text fill="#000" font-size="16" x="194" y="877" baseline-shift="baseline">🥩 牛肉</text></g><g ><rect fill="#ffffff" stroke="#e5e7eb" rx="4" ry="4" x="281" y="857" width="80" height="28"></rect><text fill="#000" font-size="16" x="289" y="877" baseline-shift="baseline">🐷 猪肉</text></g><g ><rect fill="#ffffff" stroke="#e5e7eb" rx="4" ry="4" x="91" y="900" width="80" height="28"></rect><text fill="#000" font-size="16" x="99" y="920" baseline-shift="baseline">🍚 米饭</text></g><g ><rect fill="#ffffff" stroke="#e5e7eb" rx="4" ry="4" x="186" y="900" width="80" height="28"></rect><text fill="#000" font-size="16" x="194" y="920" baseline-shift="baseline">🥟 饺子</text></g><g ><rect fill="#ffffff" stroke="#e5e7eb" rx="4" ry="4" x="281" y="900" width="80" height="28"></rect><text fill="#000" font-size="16" x="289" y="920" baseline-shift="baseline">🥖 油条</text></g><g ><rect fill="#ffffff" stroke="#e5e7eb" rx="4" ry="4" x="91" y="943" width="80" height="28"></rect><text fill="#000" font-size="16" x="99" y="963" baseline-shift="baseline">🌾 五谷</text></g><g ><rect fill="#ffffff" stroke="#e5e7eb" rx="4" ry="4" x="186" y="943" width="80" height="28"></rect><text fill="#000" font-size="16" x="194" y="963" baseline-shift="baseline">🦆 烤鸭</text></g><g ><rect fill="#ffffff" stroke="#e5e7eb" rx="4" ry="4" x="281" y="943" width="80" height="28"></rect><text fill="#000" font-size="16" x="289" y="963" baseline-shift="baseline">🍷 红酒</text></g><g ><rect fill="#ffffff" stroke="#e5e7eb" rx="4" ry="4" x="91" y="986" width="80" height="28"></rect><text fill="#000" font-size="16" x="99" y="1006" baseline-shift="baseline">🥥 椰子</text></g><g ><rect fill="#ffffff" stroke="#e5e7eb" rx="4" ry="4" x="186" y="986" width="80" height="28"></rect><text fill="#000" font-size="16" x="194" y="1006" baseline-shift="baseline">🥂 香槟</text></g><g ><rect fill="#ffffff" stroke="#e5e7eb" rx="4" ry="4" x="281" y="986" width="80" height="28"></rect><text fill="#000" font-size="16" x="289" y="1006" baseline-shift="baseline">🦀 螃蟹</text></g><g ><rect fill="#ffffff" stroke="#e5e7eb" rx="4" ry="4" x="91" y="1029" width="80" height="28"></rect><text fill="#000" font-size="16" x="99" y="1049" baseline-shift="baseline">🍬 喜糖</text></g><g ><rect fill="#ffffff" stroke="#e5e7eb" rx="4" ry="4" x="186" y="1029" width="96" height="28"></rect><text fill="#000" font-size="16" x="194" y="1049" baseline-shift="baseline">🥮 葱油饼</text></g><g ><rect fill="#ffffff" stroke="#e5e7eb" rx="4" ry="4" x="297" y="1029" width="96" height="28"></rect><text fill="#000" font-size="16" x="305" y="1049" baseline-shift="baseline">🥦 西兰花</text></g><g ><rect fill="#ffffff" stroke="#e5e7eb" rx="4" ry="4" x="91" y="1072" width="96" height="28"></rect><text fill="#000" font-size="16" x="99" y="1092" baseline-shift="baseline">🥕 胡萝卜</text></g><g ><rect fill="#ffffff" stroke="#e5e7eb" rx="4" ry="4" x="202" y="1072" width="96" height="28"></rect><text fill="#000" font-size="16" x="210" y="1092" baseline-shift="baseline">🍒 车厘子</text></g><g ><rect fill="#ffffff" stroke="#e5e7eb" rx="4" ry="4" x="313" y="1072" width="96" height="28"></rect><text fill="#000" font-size="16" x="321" y="1092" baseline-shift="baseline">🥗 凉拌菜</text></g><g ><rect fill="#ffffff" stroke="#e5e7eb" rx="4" ry="4" x="91" y="1115" width="96" height="28"></rect><text fill="#000" font-size="16" x="99" y="1135" baseline-shift="baseline">🍷 葡萄酒</text></g><g ><rect fill="#ffffff" stroke="#e5e7eb" rx="4" ry="4" x="202" y="1115" width="112" height="28"></rect><text fill="#000" font-size="16" x="210" y="1135" baseline-shift="baseline">🚄 高铁套餐</text></g><text fill="#000" font-size="20" x="32" y="921.5" baseline-shift="baseline">忌</text><line x1="76" y1="8" x2="76" y2="1158.5" stroke="#e5e7eb" stroke-width="1"></line></svg>