<svg xmlns="http://www.w3.org/2000/svg" xmlns:xlink="http://www.w3.org/1999/xlink" width="476" height="650.5"><style >text {
      font-family: Consolas, "Lucida Console", Monaco, "DejaVu Sans Mono", "Bitstream Vera Sans Mono", monospace;
      font-variant-numeric: tabular-nums;
    }</style><rect fill="#ffffff" stroke="#e5e7eb" rx="4" ry="4" x="8" y="8" width="460" height="634.5"></rect><g ><rect fill="#ffffff" stroke="#e5e7eb" rx="4" ry="4" x="91" y="23" width="64" height="28"></rect><text fill="#000" font-size="16" x="99" y="43" baseline-shift="baseline">🐟 鱼</text></g><g ><rect fill="#ffffff" stroke="#e5e7eb" rx="4" ry="4" x="170" y="23" width="64" height="28"></rect><text fill="#000" font-size="16" x="178" y="43" baseline-shift="baseline">🍤 虾</text></g><g ><rect fill="#ffffff" stroke="#e5e7eb" rx="4" ry="4" x="249" y="23" width="80" height="28"></rect><text fill="#000" font-size="16" x="257" y="43" baseline-shift="baseline">🥟 饺子</text></g><g ><rect fill="#ffffff" stroke="#e5e7eb" rx="4" ry="4" x="344" y="23" width="80" height="28"></rect><text fill="#000" font-size="16" x="352" y="43" baseline-shift="baseline">🌾 五谷</text></g><g ><rect fill="#ffffff" stroke="#e5e7eb" rx="4" ry="4" x="91" y="66" width="80" height="28"></rect><text fill="#000" font-size="16" x="99" y="86" baseline-shift="baseline">🌰 栗子</text></g><g ><rect fill="#ffffff" stroke="#e5e7eb" rx="4" ry="4" x="186" y="66" width="80" height="28"></rect><text fill="#000" font-size="16" x="194" y="86" baseline-shift="baseline">🎍 莲子</text></g><g ><rect fill="#ffffff" stroke="#e5e7eb" rx="4" ry="4" x="281" y="66" width="80" height="28"></rect><text fill="#000" font-size="16" x="289" y="86" baseline-shift="baseline">🥚 鸡蛋</text></g><g ><rect fill="#ffffff" stroke="#e5e7eb" rx="4" ry="4" x="91" y="109" width="80" height="28"></rect><text fill="#000" font-size="16" x="99" y="129" baseline-shift="baseline">🐖 猪蹄</text></g><g ><rect fill="#ffffff" stroke="#e5e7eb" rx="4" ry="4" x="186" y="109" width="80" height="28"></rect><text fill="#000" font-size="16" x="194" y="129" baseline-shift="baseline">🧅 大葱</text></g><g ><rect fill="#ffffff" stroke="#e5e7eb" rx="4" ry="4" x="281" y="109" width="80" height="28"></rect><text fill="#000" font-size="16" x="289" y="129" baseline-shift="baseline">🍜 面条</text></g><g ><rect fill="#ffffff" stroke="#e5e7eb" rx="4" ry="4" x="91" y="152" width="80" height="28"></rect><text fill="#000" font-size="16" x="99" y="172" baseline-shift="baseline">🥖 油条</text></g><g ><rect fill="#ffffff" stroke="#e5e7eb" rx="4" ry="4" x="186" y="152" width="80" height="28"></rect><text fill="#000" font-size="16" x="194" y="172" baseline-shift="baseline">🐔 鸡肉</text></g><g ><rect fill="#ffffff" stroke="#e5e7eb" rx="4" ry="4" x="281" y="152" width="80" height="28"></rect><text fill="#000" font-size="16" x="289" y="172" baseline-shift="baseline">🌶️ 辣椒</text></g><g ><rect fill="#ffffff" stroke="#e5e7eb" rx="4" ry="4" x="91" y="195" width="80" height="28"></rect><text fill="#000" font-size="16" x="99" y="215" baseline-shift="baseline">🌿 香草</text></g><g ><rect fill="#ffffff" stroke="#e5e7eb" rx="4" ry="4" x="186" y="195" width="80" height="28"></rect><text fill="#000" font-size="16" x="194" y="215" baseline-shift="baseline">🐚 蛤蜊</text></g><g ><rect fill="#ffffff" stroke="#e5e7eb" rx="4" ry="4" x="281" y="195" width="80" height="28"></rect><text fill="#000" font-size="16" x="289" y="215" baseline-shift="baseline">🥯 年糕</text></g><g ><rect fill="#ffffff" stroke="#e5e7eb" rx="4" ry="4" x="91" y="238" width="80" height="28"></rect><text fill="#000" font-size="16" x="99" y="258" baseline-shift="baseline">🍵 茶叶</text></g><g ><rect fill="#ffffff" stroke="#e5e7eb" rx="4" ry="4" x="186" y="238" width="80" height="28"></rect><text fill="#000" font-size="16" x="194" y="258" baseline-shift="baseline">🍚 米饭</text></g><g ><rect fill="#ffffff" stroke="#e5e7eb" rx="4" ry="4" x="281" y="238" width="80" height="28"></rect><text fill="#000" font-size="16" x="289" y="258" baseline-shift="baseline">🐖 猪肉</text></g><g ><rect fill="#ffffff" stroke="#e5e7eb" rx="4" ry="4" x="91" y="281" width="96" height="28"></rect><text fill="#000" font-size="16" x="99" y="301" baseline-shift="baseline">🥕 胡萝卜</text></g><text fill="#000" font-size="20" x="32" y="173.5" baseline-shift="baseline">宜</text><line x1="8" y1="326" x2="468" y2="326" stroke="#e5e7eb" stroke-width="1"></line><g ><rect fill="#ffffff" stroke="#e5e7eb" rx="4" ry="4" x="91" y="341" width="80" height="28"></rect><text fill="#000" font-size="16" x="99" y="361" baseline-shift="baseline">🌽 玉米</text></g><g ><rect fill="#ffffff" stroke="#e5e7eb" rx="4" ry="4" x="186" y="341" width="80" height="28"></rect><text fill="#000" font-size="16" x="194" y="361" baseline-shift="baseline">🥬 菜心</text></g><g ><rect fill="#ffffff" stroke="#e5e7eb" rx="4" ry="4" x="281" y="341" width="80" height="28"></rect><text fill="#000" font-size="16" x="289" y="361" baseline-shift="baseline">🥒 黄瓜</text></g><g ><rect fill="#ffffff" stroke="#e5e7eb" rx="4" ry="4" x="91" y="384" width="80" height="28"></rect><text fill="#000" font-size="16" x="99" y="404" baseline-shift="baseline">🍆 茄子</text></g><g ><rect fill="#ffffff" stroke="#e5e7eb" rx="4" ry="4" x="186" y="384" width="80" height="28"></rect><text fill="#000" font-size="16" x="194" y="404" baseline-shift="baseline">🍎 石榴</text></g><g ><rect fill="#ffffff" stroke="#e5e7eb" rx="4" ry="4" x="281" y="384" width="80" height="28"></rect><text fill="#000" font-size="16" x="289" y="404" baseline-shift="baseline">🍒 李子</text></g><g ><rect fill="#ffffff" stroke="#e5e7eb" rx="4" ry="4" x="91" y="427" width="80" height="28"></rect><text fill="#000" font-size="16" x="99" y="447" baseline-shift="baseline">🍯 蜂蜜</text></g><g ><rect fill="#ffffff" stroke="#e5e7eb" rx="4" ry="4" x="186" y="427" width="80" height="28"></rect><text fill="#000" font-size="16" x="194" y="447" baseline-shift="baseline">🍈 龙眼</text></g><g ><rect fill="#ffffff" stroke="#e5e7eb" rx="4" ry="4" x="281" y="427" width="80" height="28"></rect><text fill="#000" font-size="16" x="289" y="447" baseline-shift="baseline">🍖 排骨</text></g><g ><rect fill="#ffffff" stroke="#e5e7eb" rx="4" ry="4" x="91" y="470" width="80" height="28"></rect><text fill="#000" font-size="16" x="99" y="490" baseline-shift="baseline">🍍 菠萝</text></g><g ><rect fill="#ffffff" stroke="#e5e7eb" rx="4" ry="4" x="186" y="470" width="80" height="28"></rect><text fill="#000" font-size="16" x="194" y="490" baseline-shift="baseline">🍊 橘子</text></g><g ><rect fill="#ffffff" stroke="#e5e7eb" rx="4" ry="4" x="281" y="470" width="80" height="28"></rect><text fill="#000" font-size="16" x="289" y="490" baseline-shift="baseline">🥜 花生</text></g><g ><rect fill="#ffffff" stroke="#e5e7eb" rx="4" ry="4" x="91" y="513" width="80" height="28"></rect><text fill="#000" font-size="16" x="99" y="533" baseline-shift="baseline">🍇 葡萄</text></g><g ><rect fill="#ffffff" stroke="#e5e7eb" rx="4" ry="4" x="186" y="513" width="80" height="28"></rect><text fill="#000" font-size="16" x="194" y="533" baseline-shift="baseline">🥂 香槟</text></g><g ><rect fill="#ffffff" stroke="#e5e7eb" rx="4" ry="4" x="281" y="513" width="80" height="28"></rect><text fill="#000" font-size="16" x="289" y="533" baseline-shift="baseline">🦀 螃蟹</text></g><g ><rect fill="#ffffff" stroke="#e5e7eb" rx="4" ry="4" x="91" y="556" width="80" height="28"></rect><text fill="#000" font-size="16" x="99" y="576" baseline-shift="baseline">🍬 喜糖</text></g><g ><rect fill="#ffffff" stroke="#e5e7eb" rx="4" ry="4" x="186" y="556" width="96" height="28"></rect><text fill="#000" font-size="16" x="194" y="576" baseline-shift="baseline">🥦 西兰花</text></g><g ><rect fill="#ffffff" stroke="#e5e7eb" rx="4" ry="4" x="297" y="556" width="96" height="28"></rect><text fill="#000" font-size="16" x="305" y="576" baseline-shift="baseline">🍜 小麦面</text></g><g ><rect fill="#ffffff" stroke="#e5e7eb" rx="4" ry="4" x="91" y="599" width="96" height="28"></rect><text fill="#000" font-size="16" x="99" y="619" baseline-shift="baseline">🥗 凉拌菜</text></g><g ><rect fill="#ffffff" stroke="#e5e7eb" rx="4" ry="4" x="202" y="599" width="96" height="28"></rect><text fill="#000" font-size="16" x="210" y="619" baseline-shift="baseline">🍷 葡萄酒</text></g><text fill="#000" font-size="20" x="32" y="491.5" baseline-shift="baseline">忌</text><line x1="76" y1="8" x2="76" y2="642.5" stroke="#e5e7eb" stroke-width="1"></line></svg>