<svg xmlns="http://www.w3.org/2000/svg" xmlns:xlink="http://www.w3.org/1999/xlink" width="476" height="306.5"><rect fill="#ffffff" stroke="#e5e7eb" rx="4" ry="4" x="8" y="8" width="460" height="290.5"></rect><g ><rect fill="#ffffff" stroke="#e5e7eb" rx="4" ry="4" x="91" y="23" width="58" height="28"></rect><text fill="#000" font-size="16" x="99" y="43" baseline-shift="baseline">🍤 虾</text></g><g ><rect fill="#ffffff" stroke="#e5e7eb" rx="4" ry="4" x="164" y="23" width="58" height="28"></rect><text fill="#000" font-size="16" x="172" y="43" baseline-shift="baseline">🥣 粥</text></g><g ><rect fill="#ffffff" stroke="#e5e7eb" rx="4" ry="4" x="237" y="23" width="74" height="28"></rect><text fill="#000" font-size="16" x="245" y="43" baseline-shift="baseline">🐔 鸡肉</text></g><g ><rect fill="#ffffff" stroke="#e5e7eb" rx="4" ry="4" x="326" y="23" width="82" height="28"></rect><text fill="#000" font-size="16" x="334" y="43" baseline-shift="baseline">🌶️ 辣椒</text></g><g ><rect fill="#ffffff" stroke="#e5e7eb" rx="4" ry="4" x="91" y="66" width="74" height="28"></rect><text fill="#000" font-size="16" x="99" y="86" baseline-shift="baseline">🌿 香草</text></g><g ><rect fill="#ffffff" stroke="#e5e7eb" rx="4" ry="4" x="180" y="66" width="74" height="28"></rect><text fill="#000" font-size="16" x="188" y="86" baseline-shift="baseline">🐚 蛤蜊</text></g><g ><rect fill="#ffffff" stroke="#e5e7eb" rx="4" ry="4" x="269" y="66" width="74" height="28"></rect><text fill="#000" font-size="16" x="277" y="86" baseline-shift="baseline">🍯 蜂蜜</text></g><g ><rect fill="#ffffff" stroke="#e5e7eb" rx="4" ry="4" x="358" y="66" width="74" height="28"></rect><text fill="#000" font-size="16" x="366" y="86" baseline-shift="baseline">🍋 柠檬</text></g><g ><rect fill="#ffffff" stroke="#e5e7eb" rx="4" ry="4" x="91" y="109" width="74" height="28"></rect><text fill="#000" font-size="16" x="99" y="129" baseline-shift="baseline">🥛 豆浆</text></g><g ><rect fill="#ffffff" stroke="#e5e7eb" rx="4" ry="4" x="180" y="109" width="90" height="28"></rect><text fill="#000" font-size="16" x="188" y="129" baseline-shift="baseline">🥑 牛油果</text></g><g ><rect fill="#ffffff" stroke="#e5e7eb" rx="4" ry="4" x="285" y="109" width="90" height="28"></rect><text fill="#000" font-size="16" x="293" y="129" baseline-shift="baseline">🌼 薰衣草</text></g><g ><rect fill="#ffffff" stroke="#e5e7eb" rx="4" ry="4" x="91" y="152" width="90" height="28"></rect><text fill="#000" font-size="16" x="99" y="172" baseline-shift="baseline">🍪 芝麻饼</text></g><g ><rect fill="#ffffff" stroke="#e5e7eb" rx="4" ry="4" x="196" y="152" width="90" height="28"></rect><text fill="#000" font-size="16" x="204" y="172" baseline-shift="baseline">🍡 糖葫芦</text></g><g ><rect fill="#ffffff" stroke="#e5e7eb" rx="4" ry="4" x="301" y="152" width="90" height="28"></rect><text fill="#000" font-size="16" x="309" y="172" baseline-shift="baseline">🍡 糯米团</text></g><g ><rect fill="#ffffff" stroke="#e5e7eb" rx="4" ry="4" x="91" y="195" width="130" height="28"></rect><text fill="#000" font-size="16" x="99" y="215" baseline-shift="baseline">👩‍🍳 别的少吃</text></g><g ><rect fill="#ffffff" stroke="#e5e7eb" rx="4" ry="4" x="236" y="195" width="106" height="28"></rect><text fill="#000" font-size="16" x="244" y="215" baseline-shift="baseline">🌹 玫瑰花瓣</text></g><text fill="#000" font-size="20" x="30" y="130.5" baseline-shift="baseline">宜</text><line x1="8" y1="240" x2="468" y2="240" stroke="#e5e7eb" stroke-width="1"></line><g ><rect fill="#ffffff" stroke="#e5e7eb" rx="4" ry="4" x="91" y="255" width="90" height="28"></rect><text fill="#000" font-size="16" x="99" y="275" baseline-shift="baseline">🌀 西北风</text></g><text fill="#000" font-size="20" x="30" y="276.5" baseline-shift="baseline">忌</text><line x1="76" y1="8" x2="76" y2="298.5" stroke="#e5e7eb" stroke-width="1"></line></svg>